<?xml version="1.0" encoding="utf-8"?>
<!-- Generator: Adobe Illustrator 27.5.0, SVG Export Plug-In . SVG Version: 6.00 Build 0)  -->
<svg version="1.1" xmlns="http://www.w3.org/2000/svg" xmlns:xlink="http://www.w3.org/1999/xlink" x="0px" y="0px"
	 viewBox="0 0 750 500" style="enable-background:new 0 0 750 500;" xml:space="preserve">
<g id="BACKGROUND">
	<rect x="0.001" y="0.001" style="fill:#FFFFFF;" width="750" height="500"/>
</g>
<g id="OBJECTS">
	<rect x="20" y="20" style="fill:#CCE6F4;" width="710" height="460"/>
	<g>
		<path style="fill-rule:evenodd;clip-rule:evenodd;fill:#BEAF8F;" d="M335.732,155.629c0.411-4.245,0.826-8.49,1.237-12.735
			c-5.284-1.871-10.569-3.742-15.864-5.617c-2.554,4.164-5.101,8.317-7.652,12.477C320.954,151.449,328.14,154.442,335.732,155.629z
			"/>
		<path style="fill-rule:evenodd;clip-rule:evenodd;fill:#6DAF8C;" d="M310.167,155.112c-9.553,15.576-19.097,31.138-28.647,46.709
			c15.816,6.511,32.064,11.934,47.947,18.289c1.903-19.522,3.797-39.047,5.691-58.571
			C326.655,160.108,318.662,156.508,310.167,155.112z"/>
		<path style="fill-rule:evenodd;clip-rule:evenodd;fill:#80AFCF;" d="M298.792,214.893c-6.845-2.55-13.672-5.144-20.423-7.934
			c-5.154,8.403-10.311,16.813-15.477,25.236c9.395,3.095,18.77,6.183,28.14,9.269C293.583,232.593,296.757,223.906,298.792,214.893
			z"/>
		<path style="fill-rule:evenodd;clip-rule:evenodd;fill:#A9CBDF;" d="M304.46,216.998c-2.061,8.926-5.207,17.543-7.725,26.346
			c9.848,3.244,19.686,6.484,29.515,9.721c0.876-8.924,1.743-17.849,2.614-26.773C320.791,223.034,312.623,220.02,304.46,216.998z"
			/>
		<path style="fill-rule:evenodd;clip-rule:evenodd;fill:#96BFD8;" d="M377.665,181.666c1.031-7.675,2.934-15.44,3.228-23.218
			c-11.417-4.043-22.831-8.085-34.256-12.13c-0.814,8.407-1.631,16.814-2.445,25.221c10.734,4.464,22.025,7.648,33.471,10.181
			C377.665,181.701,377.661,181.685,377.665,181.666z"/>
		<path style="fill-rule:evenodd;clip-rule:evenodd;fill:#80AFCF;" d="M386.634,160.48c-0.506,7.066-2.012,14.054-2.969,21.186
			c-0.065,0.472-0.213,0.886-0.426,1.242c6.068,1.233,12.164,2.312,18.225,3.326c0.086-6.796,0.172-13.592,0.256-20.411
			C396.687,164.041,391.661,162.261,386.634,160.48z"/>
		<path style="fill-rule:evenodd;clip-rule:evenodd;fill:#6DAF8C;" d="M337.425,240.99c-0.498,5.088-0.988,10.178-1.488,15.266
			c19.996,6.585,39.966,13.162,59.931,19.735c1.287,0.423,2.6,0.769,3.902,1.144c0.064,0.018,0.152-0.025,0.223-0.054
			c0.072-0.029,0.135-0.076,0.336-0.193c0.057-4.498,0.113-8.999,0.17-13.5"/>
		<path style="fill-rule:evenodd;clip-rule:evenodd;fill:#80AFCF;" d="M400.577,257.151c0.27-21.566,0.541-43.176,0.813-64.883
			c-19.568-3.269-57.796-14.552-57.796-14.552c-1.846,19.028-3.704,38.054-5.564,57.08"/>
		<path style="fill-rule:evenodd;clip-rule:evenodd;fill:#80AFCF;" d="M381.689,79.899c-0.365,4.224-0.787,8.443-1.211,12.662
			c-0.91,9.066-1.848,18.13-2.76,27.196c-0.272,2.698-0.496,5.4-0.766,8.372c6.232,2.204,12.449,4.403,18.658,6.6
			c9.273-6.847,14.717-17.391,22.052-26.13c0.355-0.425,0.703-0.856,1.059-1.282C405.632,99.218,393.499,89.743,381.689,79.899z"/>
		<path style="fill-rule:evenodd;clip-rule:evenodd;fill:#A9CBDF;" d="M422.178,102.409c0.139,0.085,0.25,0.183,0.367,0.279
			c7.971-9.7,15.709-19.59,23.205-29.661c-6.496-8.709-13.199-17.279-19.375-26.075c-8.969,5.926-17.942,11.847-26.913,17.771
			c-4.957,3.274-9.916,6.545-14.873,9.817C396.567,84.562,408.857,94.211,422.178,102.409z"/>
		<path style="fill-rule:evenodd;clip-rule:evenodd;fill:#96BFD8;" d="M472.811,118.73c-5.543-14.763-14.092-27.956-23.377-40.708
			c-8.912,11.824-18.223,23.297-27.529,34.818c-6.569,8.13-11.929,17.304-19.696,24.22c16.003,5.661,31.96,11.305,47.95,16.96
			c0.656-0.975,1.197-1.755,1.715-2.549c7.039-10.792,14.078-21.584,21.117-32.377C472.93,118.972,472.859,118.863,472.811,118.73z"
			/>
		<path style="fill-rule:evenodd;clip-rule:evenodd;fill:#6A97C9;" d="M434.439,119.018c-10.252-3.705-13.619,5.43-14.117,8.572
			c-0.807,5.105,2.049,8.504,6.488,10.555c2.93,1.353,6.012,2.275,8.977,3.528c3.289,1.388,9.271,5.893,12.547,2.02
			c2.953-3.494,5.914-13.699-2.168-13.66c-2.908,0.014-5.045,0.134-6.988-2.233C437.004,125.149,438.053,120.824,434.439,119.018"/>
		<path style="fill-rule:evenodd;clip-rule:evenodd;fill:#6DAF8C;" d="M462.777,83.446c5.902,8.763,11.273,17.833,15.484,27.564
			l10.73-16.452c-0.023-8.804-0.139-17.613-0.435-26.413C479.715,72.863,471.012,77.745,462.777,83.446z"/>
		<path style="fill-rule:evenodd;clip-rule:evenodd;fill:#80AFCF;" d="M487.816,61.743c0.162-0.085,0.32-0.141,0.478-0.196
			c-0.533-11.844-1.438-23.665-2.975-35.426c-8.086-0.005-16.17-0.009-24.256-0.033c-2.178-0.006-3.963,0.511-5.783,1.721
			c-7.41,4.926-14.832,9.834-22.256,14.742c8.469,12.143,17.822,23.816,26.359,35.97C468.436,72.217,478.059,66.913,487.816,61.743z
			"/>
		<path style="fill-rule:evenodd;clip-rule:evenodd;fill:#80AFCF;" d="M529.404,30.919c-0.91-1.585-1.771-3.196-2.654-4.793h-3.055
			c-10.793,0-21.586,0.005-32.379,0.003c2.504,19.684,3.377,39.498,3.609,59.333l25.223-38.673
			c2.926-4.487,5.854-8.975,8.779-13.462C529.41,32.588,529.963,31.889,529.404,30.919z"/>
		<path style="fill-rule:evenodd;clip-rule:evenodd;fill:#80AFCF;" d="M102.846,278.409c0.19,0.112,0.354,0.238,0.504,0.37
			c7.457-10.95,15.13-21.774,21.183-33.571c-6.342-7.305-12.842-14.47-19.558-21.436c-5.995,6.226-11.995,12.448-17.987,18.677
			c-4.73,4.917-9.448,9.846-14.173,14.768C83.029,263.978,92.275,272.151,102.846,278.409z"/>
		<path style="fill-rule:evenodd;clip-rule:evenodd;fill:#BEAF8F;" d="M99.817,283.59c-10.98-6.502-20.533-15.068-31.227-21.973
			c-6.547,6.824-13.099,13.645-19.645,20.47c-0.64,0.667-1.223,1.388-2.021,2.299c13.799,6.312,27.519,12.589,41.229,18.86
			c3.56-6.757,7.641-13.203,11.881-19.555C99.963,283.656,99.89,283.633,99.817,283.59z"/>
		<path style="fill-rule:evenodd;clip-rule:evenodd;fill:#A9CBDF;" d="M154.506,281.828c-8.389-10.724-16.934-21.339-25.764-31.707
			c-10.313,19.386-24.821,36.254-35.129,55.624c12.047,5.51,24.092,11.021,36.184,16.552c0.523-0.773,0.946-1.346,1.314-1.951
			c7.808-12.829,15.614-25.657,23.422-38.486C154.525,281.848,154.515,281.838,154.506,281.828z"/>
		<path style="fill-rule:evenodd;clip-rule:evenodd;fill:#96BFD8;" d="M140.439,186.947c-9.972,10.353-19.94,20.707-29.912,31.06
			c17.25,17.88,33.087,37.07,48.413,56.612c7.559-12.42,15.124-24.836,22.689-37.252
			C169.724,219.167,155.207,202.889,140.439,186.947z"/>
		<path style="fill-rule:evenodd;clip-rule:evenodd;fill:#6A97C9;" d="M149.356,210.484c-0.143,0.098,0,0-0.523,0.183
			c-6.16,2.153-11.468-7.221-18.075-2.976c-5.415,3.479-7.229,11.788-0.753,15.612c2.119,1.252,4.335,2.159,6.085,3.93
			c1.468,1.485,1.719,3.917,1.769,5.884c0.108,4.34,3.229,8.255,7.809,7.716c3.023-0.355,6.071-2.207,6.702-5.433
			c0.76-3.89-0.811-7.856,0.334-11.666C154.201,218.744,155.667,209.334,149.356,210.484z"/>
		<path style="fill-rule:evenodd;clip-rule:evenodd;fill:#80AFCF;" d="M181.081,185.691c-3.211-9.268-6.418-18.537-9.63-27.804
			c-0.225-0.65-0.538-1.269-0.883-2.07c-0.621,0.586-1.095,0.997-1.528,1.446c-8.148,8.45-16.293,16.905-24.436,25.36
			c7.029,7.592,13.996,15.266,20.669,23.173C170.597,199.136,175.907,192.466,181.081,185.691z"/>
		<path style="fill-rule:evenodd;clip-rule:evenodd;fill:#6DAF8C;" d="M183.414,192.412c-4.692,6.072-9.465,12.082-14.258,18.076
			c5.602,6.852,10.967,13.889,15.911,21.235c2.18-3.577,4.357-7.156,6.537-10.733c0.776-1.273,0.93-2.339,0.43-3.774
			C189.15,208.952,186.282,200.682,183.414,192.412z"/>
		<path style="fill-rule:evenodd;clip-rule:evenodd;fill:#6A97C9;" d="M278.099,383.186c4.904,14.203,9.808,28.405,14.713,42.607
			c0.256,0.741,0.573,1.461,0.928,2.355c3.662-1.752,7.145-3.536,10.73-5.08c1.648-0.71,2.411-1.73,2.871-3.431
			c3.302-12.191,6.615-24.379,9.925-36.568C304.208,383.247,291.143,383.665,278.099,383.186z"/>
		<path style="fill-rule:evenodd;clip-rule:evenodd;fill:#80AFCF;" d="M243.842,283.982c11.002-0.41,21.901-2.212,32.808-3.795
			c2.229-6.805,4.318-13.654,6.17-20.579c-10.128-3.335-20.257-6.67-30.379-10.002c-0.357,0.428-0.588,0.645-0.749,0.906
			c-3.905,6.328-7.768,12.681-11.733,18.971c-0.731,1.16-0.401,2.091-0.036,3.147C241.229,276.415,242.536,280.198,243.842,283.982z
			"/>
		<path style="fill-rule:evenodd;clip-rule:evenodd;fill:#BEAF8F;" d="M245.885,289.898c4.47,12.945,8.939,25.891,13.41,38.836
			c5.068-14.075,10.41-28.063,15.237-42.215C265.015,287.934,255.482,289.404,245.885,289.898z"/>
		<path style="fill-rule:evenodd;clip-rule:evenodd;fill:#80AFCF;" d="M277.001,309.346c-4.208,11.506-8.507,22.983-12.464,34.569
			c3.587,10.385,7.173,20.771,10.759,31.155c14.7,0.692,29.429,0.138,44.148-0.027c4.214-15.513,8.435-31.024,12.653-46.536
			C313.128,324.036,294.711,317.464,277.001,309.346z"/>
		<path style="fill-rule:evenodd;clip-rule:evenodd;fill:#96BFD8;" d="M292.333,262.74c-3.733,13.879-8.395,27.463-13.282,40.976
			c17.542,8.092,35.814,14.57,54.622,19.003c2.013-7.399,4.023-14.8,6.036-22.199c1.822-6.701,3.65-13.401,5.545-20.357
			C327.585,274.346,309.953,268.541,292.333,262.74z"/>
		<path style="fill-rule:evenodd;clip-rule:evenodd;fill:#BEAF8F;" d="M469.307,259.466c-15.451,0.952-30.902,1.904-46.336,2.855
			c-0.133,0.446-0.252,0.666-0.256,0.888c-0.229,16.623-0.453,33.245-0.678,49.868c15.924-0.915,31.734-3.304,47.635-4.447
			C469.754,292.239,470.752,275.816,469.307,259.466z"/>
		<path style="fill-rule:evenodd;clip-rule:evenodd;fill:#80AFCF;" d="M485.154,258.49c-3.297,0.203-6.588,0.406-9.885,0.609
			c1.484,16.35,0.5,32.773,0.404,49.165c2.918-0.144,5.838-0.24,8.764-0.261C485.73,291.526,486.154,274.993,485.154,258.49z"/>
		<path style="fill-rule:evenodd;clip-rule:evenodd;fill:#80AFCF;" d="M421.955,319.082c-0.207,15.194-0.416,30.389-0.621,45.584
			c-0.002,0.235,0.055,0.474,0.102,0.707c0.012,0.067,0.074,0.132,0.129,0.182c0.057,0.054,0.133,0.089,0.295,0.194
			c0.662-0.305,1.387-0.618,2.096-0.966c9.324-4.575,18.648-9.149,27.965-13.735c9.84-4.843,19.678-9.686,29.516-14.528
			c0.965-7.483,1.809-14.988,2.492-22.508C463.162,314.216,442.656,317.899,421.955,319.082z"/>
		<path style="fill-rule:evenodd;clip-rule:evenodd;fill:#6A97C9;" d="M471.17,319.668c-0.064,0-0.111-0.025-0.168-0.034
			c-4.545,0.66-4.957,8.989-9.414,10.949c-3.916,1.724-8.832-0.517-9.922,5.537c-0.645,3.583,1.51,5.532,4.904,5.249
			c5.568-0.465,11.135-3.297,15.646-6.479c1.619-1.141,4.043-2.662,4.924-4.561C479.459,325.325,477.148,319.666,471.17,319.668z"/>
		<path style="fill-rule:evenodd;clip-rule:evenodd;fill:#A9CBDF;" d="M493.689,278.666c16.756-0.007,33.525-0.121,50.213-1.599
			c0.154-3.342,0.309-6.683,0.404-10.025c0.111-3.899,0.021-7.806,0.021-12.199c-17.094,1.054-34.15,2.105-51.201,3.156
			C493.555,264.887,493.723,271.778,493.689,278.666z"/>
		<path style="fill-rule:evenodd;clip-rule:evenodd;fill:#80AFCF;" d="M530.295,283.989c-0.158,9.706-0.928,19.39-1.201,29.092
			c4.025-1.978,8.047-3.96,12.072-5.936c1.34-0.657,1.791-1.487,1.82-2.949c0.133-6.635,0.361-13.267,0.605-19.899
			c0.014-0.402,0.033-0.804,0.049-1.205C539.197,283.48,534.748,283.768,530.295,283.989z"/>
		<path style="fill-rule:evenodd;clip-rule:evenodd;fill:#96BFD8;" d="M524.291,284.247c-10.217,0.368-20.451,0.415-30.68,0.419
			c-0.35,15.926-1.742,31.831-3.664,47.664c11.025-5.427,22.057-10.848,33.088-16.27
			C523.207,305.446,524.107,294.86,524.291,284.247z"/>
		<path style="fill-rule:evenodd;clip-rule:evenodd;fill:#A9CBDF;" d="M109.287,347.414c0.211-3.302,0.292-6.611,0.18-9.931
			c-9.889-4.523-19.787-9.052-29.708-13.59c-1.509,6.157-3.012,12.293-4.516,18.433C86.623,343.784,97.931,345.764,109.287,347.414z
			"/>
		<path style="fill-rule:evenodd;clip-rule:evenodd;fill:#6DAF8C;" d="M101.364,401.332c0.595-6,1.324-11.991,2.397-17.958
			c0.015-0.081,0.029-0.161,0.044-0.242c0.019-0.225,0.058-0.444,0.12-0.656c1.765-9.708,3.797-19.45,4.858-29.257
			c-0.29,0.039-0.593,0.053-0.917,0.006c-11.357-1.646-22.664-3.65-34.051-5.075c-4.349,17.75-8.686,35.453-13.029,53.183H101.364z"
			/>
		<path style="fill-rule:evenodd;clip-rule:evenodd;fill:#80AFCF;" d="M59.317,407.332c-1.716,7.003-3.433,14.011-5.152,21.03
			c1.632,0.115,2.884,0.24,4.138,0.287c10.705,0.401,21.409,0.783,32.114,1.18c2.767,0.103,5.535,0.206,8.304,0.309
			c0.861-7.591,1.419-15.202,2.085-22.806H59.317z"/>
		<path style="fill-rule:evenodd;clip-rule:evenodd;fill:#80AFCF;" d="M155.772,358.666c2.394,17.327,2.968,34.881,2.858,52.395
			c10.686-11.334,21.377-22.663,32.065-33.995c0.474-0.502,0.88-1.066,1.448-1.762C180.005,369.75,167.886,364.207,155.772,358.666z
			"/>
		<path style="fill-rule:evenodd;clip-rule:evenodd;fill:#96BFD8;" d="M113.227,387.143c-2.434,14.384-3.064,28.904-4.61,43.362
			c9.431,0.351,18.86,0.708,28.29,1.092c1.667,0.067,2.797-0.441,3.937-1.654c2.547-2.71,5.101-5.413,7.65-8.122
			c0.21-10.413,0.275-20.875-0.075-31.311C136.84,388.28,124.995,387.9,113.227,387.143z"/>
		<path style="fill-rule:evenodd;clip-rule:evenodd;fill:#80AFCF;" d="M148.163,384.375c-0.52-10.281-1.496-20.524-3.211-30.66
			c-8.478-3.878-16.953-7.755-25.437-11.636c-0.161,13.146-2.849,26.19-5.238,39.136
			C125.606,381.939,136.991,382.387,148.163,384.375z"/>
		<path style="fill-rule:evenodd;clip-rule:evenodd;fill:#96BFD8;" d="M609.869,109.337c-7.815,5.257-15.615,10.506-23.412,15.75
			c0.727,4.09,1.404,7.939,2.096,11.786c0.258,1.44,0.518,2.881,0.777,4.321c7.199,0.51,14.406,0.803,21.619,0.967
			C610.826,131.212,610.467,120.269,609.869,109.337z"/>
		<path style="fill-rule:evenodd;clip-rule:evenodd;fill:#6DAF8C;" d="M649.771,141.536c2.912-15.763,5.664-31.587,6.826-47.58
			c-4.096-2.604-8.184-5.206-12.266-7.802c-9.613,6.466-19.166,12.894-28.691,19.301c0.732,12.26,1.174,24.532,1.31,36.813
			c10.918,0.142,21.844,0.023,32.768-0.097C649.717,141.966,649.73,141.755,649.771,141.536z"/>
		<path style="fill-rule:evenodd;clip-rule:evenodd;fill:#80AFCF;" d="M662.313,97.592c-1.289,14.945-3.85,29.765-6.566,44.513
			c3.877-0.04,7.754-0.075,11.629-0.092c4.537-10.84,9.074-21.682,13.619-32.537C674.729,105.49,668.508,101.533,662.313,97.592z"/>
		<path style="fill-rule:evenodd;clip-rule:evenodd;fill:#A9CBDF;" d="M636.904,152.295c0,0,8.686,21.012,12.943,31.592
			c4.445-10.622,8.889-21.236,13.332-31.85C654.424,152.102,645.664,152.231,636.904,152.295z"/>
		<path style="fill-rule:evenodd;clip-rule:evenodd;fill:#80AFCF;" d="M591.152,151.315c1.935,10.751,3.873,21.502,5.805,32.254
			c1.313,7.312,2.641,14.62,3.877,21.945c0.26,1.545,0.965,2.314,2.441,2.788c3.646,1.17,7.242,2.505,10.857,3.777
			c6.848,2.409,13.693,4.821,20.844,7.338c3.895-9.306,7.781-18.592,11.668-27.876c-5.936-12.942-16.799-39.216-16.799-39.216"/>
		<path style="fill-rule:evenodd;clip-rule:evenodd;fill:#6A97C9;" d="M625.645,184.051c-0.459,0.837-0.908,1.837-1.561,2.544
			c-1.533,1.658-3.287,2.724-5.594,2.901c-3.203,0.245-13.434-0.583-10.408,6.726c2.199,5.308,7.719,3.128,10.67,6.789
			c2.24,2.776,3.107,7.385,7.164,8.328c8.352,1.942,9.113-4.958,9.031-11.132c-0.174-0.161-0.287-0.394-0.279-0.706
			c0.018-0.707,0.102-1.42,0.205-2.135c-0.016-0.532-0.031-1.046-0.039-1.532c-0.006-0.401,0.193-0.663,0.457-0.814
			c0.541-2.615,1.193-5.24,0.92-7.781C635.639,181.891,629.082,177.771,625.645,184.051z"/>
		<path style="fill-rule:evenodd;clip-rule:evenodd;fill:#80AFCF;" d="M272.115,50.102c-9.19,9.553-18.376,19.11-27.567,28.662
			c-0.489,0.509-0.942,1.052-1.428,1.597c0.848,0.519,12.741,4.863,28.486,10.497C271.533,77.267,271.491,63.673,272.115,50.102z"/>
		<path style="fill-rule:evenodd;clip-rule:evenodd;fill:#A9CBDF;" d="M316.932,50.354c0.543-8.066,0.849-16.14,0.64-24.236
			c-6.833-0.003-13.666-0.005-20.499-0.015c-1.291-0.002-2.219,0.354-3.129,1.303c-3.713,3.869-7.436,7.729-11.152,11.595
			c-1.411,18.444-1.267,36.942-1.166,55.431c10.031,3.568,20.891,7.404,31.115,10.992c0.463-17.419,2.696-34.758,3.981-52.132
			C316.338,52.298,316.406,51.162,316.932,50.354z"/>
		<path style="fill-rule:evenodd;clip-rule:evenodd;fill:#96BFD8;" d="M358.417,90.358c0.954-9.511,1.985-20.117,2.91-29.926
			c-12.329-0.746-24.548-2.86-36.811-4.458c-0.778,9.812-1.808,19.615-2.611,29.429C334.221,85.831,346.288,88.33,358.417,90.358z"
			/>
		<path style="fill-rule:evenodd;clip-rule:evenodd;fill:#80AFCF;" d="M321.451,91.391c-0.393,5.598-0.69,11.2-0.775,16.812
			c18.272,6.386,32.963,11.424,34.478,11.728c0.301-1.205,1.367-10.922,2.668-23.672C345.739,94.222,333.713,91.765,321.451,91.391z
			"/>
		<path style="fill-rule:evenodd;clip-rule:evenodd;fill:#BEAF8F;" d="M324.948,50.031c12.304,1.615,24.565,3.729,36.938,4.435
			c1.425-15.358,2.462-27.538,2.307-28.258c-0.596-0.026-1.224-0.078-1.852-0.078c-12.256-0.002-24.513-0.002-36.769-0.006
			C325.778,34.109,325.477,42.074,324.948,50.031z"/>
		<path style="fill-rule:evenodd;clip-rule:evenodd;fill:#80AFCF;" d="M723.926,152.053c0.004-4.392,0.004-8.783,0.008-13.174
			c0.002-1.54-0.434-2.458-1.762-3.289c-8.676-5.423-17.295-10.935-25.935-16.412c-0.443-0.281-0.918-0.509-1.555-0.857
			c-3.076,7.348-6.145,14.681-9.215,22.015C697.693,145.914,711.129,148.057,723.926,152.053z"/>
		<path style="fill-rule:evenodd;clip-rule:evenodd;fill:#96BFD8;" d="M683.162,145.839c-4.123,9.853-8.244,19.698-12.365,29.543
			c17.482,5.949,35.365,10.597,53.106,15.719c0.002-10.92,0.012-21.841,0.019-32.762C710.4,153.899,696.19,151.665,683.162,145.839z
			"/>
		<path style="fill-rule:evenodd;clip-rule:evenodd;fill:#80AFCF;" d="M657.152,207.979c-2.334,5.575-4.664,11.14-7.002,16.724
			c15.598,5.647,31.117,11.166,46.684,16.61c0.69-7.432,1.994-14.797,3.229-22.167C685.82,214.993,670.732,213.966,657.152,207.979z
			"/>
		<path style="fill-rule:evenodd;clip-rule:evenodd;fill:#BEAF8F;" d="M701.029,213.173c1.012-6.521,1.828-13.061,1.969-19.672
			c-11.84-3.335-23.66-6.735-35.295-10.73c-2.742,6.552-5.49,13.118-8.236,19.675C672.555,208.326,687.244,209.279,701.029,213.173z
			"/>
		<path style="fill-rule:evenodd;clip-rule:evenodd;fill:#A9CBDF;" d="M708.932,195.169c-0.615,16.218-5.033,32.026-6.273,48.182
			c7.014,2.441,14.039,4.871,21.092,7.283c0.063-0.983,0.145-1.673,0.146-2.362c0.002-16.28,0.002-32.561,0.004-48.841
			C718.92,197.98,713.926,196.572,708.932,195.169z"/>
		<path style="fill-rule:evenodd;clip-rule:evenodd;fill:#BEAF8F;" d="M590.621,335.213c0.596-10.68,0.922-21.377,1.016-32.067
			c-6.951-1.83-13.9-3.649-20.854-5.456c-0.301,0.941-1.074,17.747-1.748,35.225C576.215,333.827,583.406,334.639,590.621,335.213z"
			/>
		<path style="fill-rule:evenodd;clip-rule:evenodd;fill:#80AFCF;" d="M568.809,338.885c-0.615,16.663-1.078,32.362-0.893,33.832
			c6.117,2.287,12.26,4.583,18.395,6.877c1.834-12.743,3.113-25.562,3.961-38.411C583.098,340.605,575.947,339.794,568.809,338.885z
			"/>
		<path style="fill-rule:evenodd;clip-rule:evenodd;fill:#6A97C9;" d="M652.779,339.612c2.619-5.934,5.242-11.875,7.873-17.833
			c-19.731-5.472-39.395-10.781-59.051-15.991c-0.084,6.661-0.26,13.321-0.535,19.978
			C601.066,325.765,635.605,334.989,652.779,339.612z"/>
		<path style="fill-rule:evenodd;clip-rule:evenodd;fill:#A9CBDF;" d="M597.783,368.205c-0.578,4.991-1.223,9.975-1.957,14.947
			c10.76,4.023,21.549,8.058,32.383,12.107c2.033-4.603,4.055-9.183,6.08-13.771C621.965,377.503,609.955,372.629,597.783,368.205z"
			/>
		<path style="fill-rule:evenodd;clip-rule:evenodd;fill:#96BFD8;" d="M636.727,375.966c4.535-10.272,9.066-20.532,13.6-30.802
			c-16.48-4.349-49.574-12.858-49.574-12.858c-0.514,9.946-1.268,19.878-2.297,29.782
			C611.221,366.7,623.797,371.832,636.727,375.966z"/>
		<path style="fill-rule:evenodd;clip-rule:evenodd;fill:#80AFCF;" d="M451.654,215.071c0.131-10.475,0.262-20.95,0.316-31.425
			c-9.361-3.306-18.738-6.617-28.152-9.94c-0.092,13.537-0.32,26.913-0.502,40.259C432.793,213.883,442.248,213.785,451.654,215.071
			z"/>
		<path style="fill-rule:evenodd;clip-rule:evenodd;fill:#A9CBDF;" d="M423.238,219.956c-0.107,8.766-0.18,17.526-0.164,26.32
			c9.443-0.582,18.869-1.164,28.289-1.745c0.041-7.816,0.127-15.632,0.221-23.448C442.207,219.659,432.707,219.843,423.238,219.956z
			"/>
		<path style="fill-rule:evenodd;clip-rule:evenodd;fill:#6A97C9;" d="M500.947,200.938c-13.647-4.818-27.299-9.639-40.992-14.474
			c-0.127,19.191-0.486,38.381-0.59,57.573c13.461-0.83,26.908-1.66,40.359-2.49C499.945,228.006,500.752,214.48,500.947,200.938z"
			/>
		<path style="fill-rule:evenodd;clip-rule:evenodd;fill:#6DAF8C;" d="M506.92,203.046c-0.242,12.714-0.973,25.416-1.191,38.131
			c4.201-0.259,8.402-0.518,12.604-0.777v-33.324C514.529,205.733,510.723,204.39,506.92,203.046z"/>
		<path style="fill-rule:evenodd;clip-rule:evenodd;fill:#80AFCF;" d="M528.332,210.607v29.176
			c5.637-0.348,11.268-0.695,16.91-1.043c0.266-7.434,0.521-14.595,0.783-21.886C540.125,214.77,534.229,212.689,528.332,210.607z"
			/>
		<path style="fill-rule:evenodd;clip-rule:evenodd;fill:#80AFCF;" d="M399.866,306.764c0.049-2.826,0.098-5.672,0.145-8.571
			c-13.211-4.353-26.221-8.639-39.208-12.918c-0.257,0.558-1.728,5.669-3.925,13.536
			C356.878,298.811,385.397,304.917,399.866,306.764z"/>
		<path style="fill-rule:evenodd;clip-rule:evenodd;fill:#80AFCF;" d="M355.234,304.716c-2.481,8.954-5.565,20.2-8.787,32.031
			c17.571,1.997,35.374,0.441,53.015,1.724c0.059-5.889,0.111-11.777,0.188-17.666c0.033-2.678,0.074-5.36,0.119-8.053
			C384.786,310.825,355.234,304.716,355.234,304.716z"/>
		<path style="fill-rule:evenodd;clip-rule:evenodd;fill:#A9CBDF;" d="M373.785,345.764c-9.834-0.053-19.663-0.146-29.439-1.288
			c-8.875,32.68-18.016,66.891-18,67.887c0.761-0.34,1.486-0.638,2.19-0.98c6.535-3.179,13.065-6.365,19.598-9.55
			c7.833-3.818,15.664-7.642,23.498-11.459C375.042,375.953,374.426,360.495,373.785,345.764z"/>
		<path style="fill-rule:evenodd;clip-rule:evenodd;fill:#6DAF8C;" d="M379.784,345.8c0.584,13.588,1.098,27.766-1.324,41.255
			c6.188-3.012,12.375-6.023,18.568-9.02c1.406-0.68,1.99-1.405,1.998-3.043c0.041-9.513,0.234-19.023,0.352-28.536
			C392.858,345.97,386.323,345.85,379.784,345.8z"/>
		<path style="fill-rule:evenodd;clip-rule:evenodd;fill:#96BFD8;" d="M231.189,418.137c8.787-3.631,17.638-7.113,26.32-10.982
			c-5.139-14.887-10.281-29.782-15.444-44.737c-7.74,8.202-15.414,16.335-23.067,24.444
			C223.302,397.19,227.224,407.672,231.189,418.137z"/>
		<path style="fill-rule:evenodd;clip-rule:evenodd;fill:#A9CBDF;" d="M214.523,391.604c-7.284,7.719-14.554,15.422-21.839,23.142
			c0.593,1.032,1.023,1.796,1.465,2.553c2.921,5,5.843,10,8.766,14.999c7.713-3.633,15.039-8.204,22.779-11.799
			C222.036,410.842,218.441,401.157,214.523,391.604z"/>
		<path style="fill-rule:evenodd;clip-rule:evenodd;fill:#80AFCF;" d="M270.009,443.362c-3.3-9.559-6.599-19.112-9.897-28.667
			c-9.023,3.974-18.213,7.564-27.315,11.36c-8.924,3.723-17.184,8.9-25.873,13.104c6.344,10.856,12.681,21.718,18.984,32.598
			c0.931,1.605,1.925,2.165,3.755,2.156c7.341-0.032,14.683-0.04,22.024-0.043C257.09,463.309,263.711,453.428,270.009,443.362z"/>
		<path style="fill-rule:evenodd;clip-rule:evenodd;fill:#6A97C9;" d="M257.138,428.137c-4.956-4.052-15.644-1.757-12.672,6.265
			c1.862,5.024,1.345,6.509-1.351,10.763c-5.13,8.099,11.369,11.233,14.756,2.737c0.061-0.152,0.147-0.274,0.247-0.372
			C260.122,441.657,262.067,432.167,257.138,428.137z"/>
		<path style="fill-rule:evenodd;clip-rule:evenodd;fill:#6DAF8C;" d="M258.461,473.868c6.47,0.001,12.939,0.005,19.409,0.005h2.673
			c-2.679-7.76-5.351-15.501-8.023-23.241C267.665,458.285,262.751,465.903,258.461,473.868z"/>
		<path style="fill-rule:evenodd;clip-rule:evenodd;fill:#80AFCF;" d="M215.583,285.712c-5.362-15.528-10.738-31.097-16.159-46.793
			c-9.577,15.753-19.069,31.367-28.54,46.945C185.788,285.545,200.71,284.85,215.583,285.712z"/>
		<path style="fill-rule:evenodd;clip-rule:evenodd;fill:#96BFD8;" d="M191.694,291.372c-8.166,0.138-16.337,0.429-24.5,0.561
			c-7.523,12.375-15.041,24.739-22.578,37.138c14.9,6.817,29.7,13.59,44.557,20.388C191.199,330.166,192.149,310.77,191.694,291.372
			z"/>
		<path style="fill-rule:evenodd;clip-rule:evenodd;fill:#A9CBDF;" d="M217.7,291.843c-6.66-0.454-13.331-0.571-20.007-0.537
			c0.479,20.297-0.592,40.589-2.812,60.763c4.501,2.06,9.006,4.121,13.526,6.189c7.944-8.421,15.771-16.718,23.592-25.009
			C227.228,319.431,222.467,305.647,217.7,291.843z"/>
		<path style="fill-rule:evenodd;clip-rule:evenodd;fill:#96BFD8;" d="M679.104,280.004c2.004-4.537,4.004-9.067,6.002-13.592
			c-0.33-0.254-0.494-0.458-0.707-0.533c-14.584-5.169-29.172-10.33-43.758-15.496c-0.484,5.869-1.625,11.668-3.006,17.44
			C651.426,271.987,665.297,275.886,679.104,280.004z"/>
		<path style="fill-rule:evenodd;clip-rule:evenodd;fill:#80AFCF;" d="M636.172,273.647c-1.705,6.536-3.553,13.055-4.951,19.615
			c12.512,3.373,25.02,6.745,37.555,10.124c2.646-5.993,5.271-11.934,7.885-17.85C663.178,281.526,649.639,277.712,636.172,273.647z
			"/>
		<path style="fill-rule:evenodd;clip-rule:evenodd;fill:#A9CBDF;" d="M599.74,235.899c-1.721,15.678-6.338,30.835-10.356,46.084
			c11.375,3.066,22.75,6.133,34.121,9.198c3.129-14.504,8.531-28.804,9.287-43.578C621.775,243.702,610.758,239.801,599.74,235.899z
			"/>
		<path style="fill-rule:evenodd;clip-rule:evenodd;fill:#6DAF8C;" d="M593.93,233.842c-6.5-2.302-12.998-4.605-19.498-6.905
			c-0.295-0.104-0.621-0.118-0.936-0.158c-0.068-0.008-0.152,0.047-0.221,0.087c-0.063,0.037-0.115,0.093-0.316,0.263
			c-0.607,16.472-1.217,33.071-1.838,49.933c4.16,1.121,8.315,2.241,12.473,3.362C587.664,265.032,592.416,249.711,593.93,233.842z"
			/>
		<path style="fill-rule:evenodd;clip-rule:evenodd;fill:#80AFCF;" d="M91.702,96.083c-9.324-2.747-18.658-5.497-28.029-8.258
			c-5.517,16.932-10.93,33.545-16.396,50.326c8.509,5.217,16.998,10.421,25.49,15.628C78.044,134.236,88.56,116.163,91.702,96.083z"
			/>
		<path style="fill-rule:evenodd;clip-rule:evenodd;fill:#A9CBDF;" d="M127.736,133.017c-0.014-7.072-0.026-14.144-0.046-21.215
			c-0.004-1.667-0.146-3.333-0.233-5.185c-10.019-2.952-20.019-5.898-30.027-8.846c-1.684,9.674-4.952,18.895-8.463,28.048
			C102.013,127.582,114.943,129.909,127.736,133.017z"/>
		<path style="fill-rule:evenodd;clip-rule:evenodd;fill:#80AFCF;" d="M86.76,131.525c-3.264,8.395-6.499,16.802-8.67,25.518
			c11.102,6.806,22.206,13.614,33.343,20.442c0.481-0.405,0.743-0.587,0.96-0.813c4.783-4.943,9.547-9.905,14.353-14.826
			c0.79-0.81,1.058-1.661,1.054-2.771c-0.023-6.625-0.036-13.25-0.05-19.875C114.241,135.84,100.567,133.329,86.76,131.525z"/>
		<path style="fill-rule:evenodd;clip-rule:evenodd;fill:#80AFCF;" d="M515.992,394.348c-13.703-1.473-27.371-3.358-41.064-4.92
			c-1.875,5.316-3.764,10.672-5.693,16.144c15.113,7.474,30.148,14.909,45.264,22.385
			C515.082,416.745,516.65,405.571,515.992,394.348z"/>
		<path style="fill-rule:evenodd;clip-rule:evenodd;fill:#A9CBDF;" d="M522.023,394.963c0.617,11.984-1.236,23.916-1.65,35.898
			c5.818,2.877,11.654,5.763,17.516,8.662c0.65-14.598,1.106-28.919,1.67-43.194C533.701,396.01,527.859,395.531,522.023,394.963z"
			/>
		<path style="fill-rule:evenodd;clip-rule:evenodd;fill:#80AFCF;" d="M539.965,386.351c0.715-17.286,1.557-47.237,1.053-48.666
			c-0.367,0.145-0.742,0.264-1.092,0.436c-18.496,9.11-36.986,18.232-55.492,27.321c-1.035,0.508-1.533,1.252-1.887,2.297
			c-1.279,3.786-2.633,7.546-3.961,11.314c-0.09,0.255-0.18,0.511-0.272,0.766C498.844,382.235,519.32,385.251,539.965,386.351z"/>
		<path style="fill-rule:evenodd;clip-rule:evenodd;fill:#80AFCF;" d="M508.607,144.55c9.508-6.406,19.02-12.804,28.535-19.198
			c-8.805-12.104-16.025-25.277-24.533-37.582c-7.695,11.799-15.379,23.583-23.066,35.369
			C496.154,130.012,502.984,136.855,508.607,144.55z"/>
		<path style="fill-rule:evenodd;clip-rule:evenodd;fill:#BEAF8F;" d="M486.184,128.292c-6.793,10.418-13.588,20.836-20.393,31.269
			c3.525,1.254,6.768,2.176,9.801,3.556c2.549,1.159,4.369,0.785,6.693-0.79c7.109-4.816,14.229-9.617,21.348-14.417
			C498.479,140.87,492.264,134.579,486.184,128.292z"/>
		<path style="fill-rule:evenodd;clip-rule:evenodd;fill:#96BFD8;" d="M538.625,47.878c-7.127,10.929-14.232,21.824-21.33,32.708
			c9.406,13.045,17.037,27.288,26.463,40.321c7.492-5.034,14.984-10.068,22.475-15.104c0.916-0.616,1.816-1.255,2.873-1.987
			C558.951,85.18,548.875,66.688,538.625,47.878z"/>
		<path style="fill-rule:evenodd;clip-rule:evenodd;fill:#80AFCF;" d="M236.573,107.32c-4.068-1.449-8.14-2.891-12.207-4.344
			c-1.755-0.627-2.816-0.411-4.133,0.978c-8.913,9.393-17.935,18.683-26.915,28.012c-0.487,0.506-0.916,1.069-1.387,1.624
			c2.278,6.569,4.519,13.03,6.738,19.428h35.005C235.533,137.839,236.987,122.596,236.573,107.32z"/>
		<path style="fill-rule:evenodd;clip-rule:evenodd;fill:#80AFCF;" d="M297.024,128.789c-17.466-6.197-34.932-12.392-52.393-18.601
			c0.173,14.316-1.215,28.601-2.957,42.831h43.602c4.698-7.679,9.363-15.304,14.226-23.249
			C298.474,129.361,297.758,129.049,297.024,128.789z"/>
		<path style="fill-rule:evenodd;clip-rule:evenodd;fill:#A9CBDF;" d="M723.469,385.086v-24.76
			c-0.412,0.019-0.656-0.005-0.883,0.045c-7.219,1.582-14.44,3.16-21.658,4.743c0.322,6.411,0.516,12.836,0.57,19.262
			C708.785,385.12,716.16,385.556,723.469,385.086z"/>
		<path style="fill-rule:evenodd;clip-rule:evenodd;fill:#96BFD8;" d="M701.498,390.372c-0.072,10.594-0.576,21.181-1.711,31.706
			c12.563,4.565,22.74,8.142,23.682,8.205v-39.254C716.154,391.465,708.815,391.1,701.498,390.372z"/>
		<path style="fill-rule:evenodd;clip-rule:evenodd;fill:#80AFCF;" d="M693.012,366.848c-9.717,2.131-19.434,4.266-29.154,6.386
			c-1.389,0.303-2.121,1.035-2.682,2.336c-3.449,7.998-6.992,15.955-10.502,23.927c-0.477,1.087-0.936,2.182-1.457,3.398
			c3.857,1.833,24.393,9.59,42.902,16.382C693.881,401.896,693.852,384.286,693.012,366.848z"/>
		<path style="fill-rule:evenodd;clip-rule:evenodd;fill:#80AFCF;" d="M202.019,83.601c13.725-14.383,24.855-26.178,25.15-26.787
			c-25.806-1.522-51.571-2.814-77.602-3.867c-0.011,6.736-0.001,13.453,0.021,20.162C167.247,75.622,184.565,79.959,202.019,83.601z
			"/>
		<path style="fill-rule:evenodd;clip-rule:evenodd;fill:#80AFCF;" d="M149.817,110.096c0.069,9.037,0.145,18.085,0.214,27.162
			c1.146-0.944,9.217-9.189,19.733-20.066C163.069,114.949,156.397,112.649,149.817,110.096z"/>
		<path style="fill-rule:evenodd;clip-rule:evenodd;fill:#BEAF8F;" d="M174.374,112.419c6.222-6.45,13.008-13.514,19.584-20.383
			c-14.731-3.227-29.406-6.752-44.319-8.911c0.035,6.854,0.086,13.703,0.137,20.555C157.857,106.906,166.11,109.68,174.374,112.419z
			"/>
		<path style="fill-rule:evenodd;clip-rule:evenodd;fill:#A9CBDF;" d="M352.644,473.781h42.462
			c-8.391-17.473-16.668-34.712-25.049-52.164c-5.997,2.897-11.968,5.782-17.926,8.66
			C353.417,444.753,353.01,459.265,352.644,473.781z"/>
		<path style="fill-rule:evenodd;clip-rule:evenodd;fill:#80AFCF;" d="M342.486,434.936c-13.31,6.43-26.572,12.837-39.867,19.259
			c2.32,6.708,4.555,13.164,6.776,19.586h33.249C342.971,460.822,343.327,447.866,342.486,434.936z"/>
		<path style="fill-rule:evenodd;clip-rule:evenodd;fill:#96BFD8;" d="M421.457,396.448c5.582,9.962,10.523,20.425,16.935,29.846
			c7.9-22.572,15.537-44.83,15.557-45.785C443.109,385.826,432.285,391.135,421.457,396.448z"/>
		<path style="fill-rule:evenodd;clip-rule:evenodd;fill:#BEAF8F;" d="M432.635,442.667c1.088-3.079,2.209-6.256,3.338-9.473
			c-7.803-10.568-13.426-22.64-19.906-34.102c-10.495,5.148-20.993,10.299-31.521,15.463c0.43,0.951,0.738,1.677,1.08,2.387
			c4.117,8.575,8.236,17.15,12.355,25.725H432.635z"/>
		<path style="fill-rule:evenodd;clip-rule:evenodd;fill:#80AFCF;" d="M400.862,448.667c2.428,5.055,4.855,10.109,7.283,15.164
			c1.383,2.882,2.758,5.767,4.139,8.649c0.35,0.727,0.67,1.418,1.703,1.398c2.47-0.047,4.94-0.016,7.315-0.016
			c0.82-1.799,4.547-12.076,9.207-25.196H400.862z"/>
		<path style="fill-rule:evenodd;clip-rule:evenodd;fill:#6DAF8C;" d="M127.306,48.077c-0.124-11.523-0.323-21.087-0.55-21.771
			H83.705c-1.887,5.794-3.773,11.586-5.663,17.387"/>
		<path style="fill-rule:evenodd;clip-rule:evenodd;fill:#80AFCF;" d="M127.362,54.076l-24.474-1.257
			c-0.408,9.664-1.941,19.212-3.606,28.738c9.315,2.746,18.607,5.485,27.907,8.227C127.469,87.229,127.49,69.962,127.362,54.076z"/>
		<path style="fill-rule:evenodd;clip-rule:evenodd;fill:#96BFD8;" d="M96.907,52.207c-6.932-0.767-13.847-1.713-20.737-2.767
			c-2.492,7.654-4.995,15.337-7.52,23.087c8.331,2.456,16.607,4.896,24.864,7.33C95.112,70.686,96.553,61.511,96.907,52.207z"/>
		<path style="fill-rule:evenodd;clip-rule:evenodd;fill:#80AFCF;" d="M50.031,362.047c3.793-15.486,7.586-30.967,11.384-46.472
			c-0.903-0.436-1.605-0.789-2.32-1.116c-6.61-3.028-13.222-6.054-19.834-9.078c-2.471-1.13-4.93-2.286-7.424-3.363
			c-0.531-0.229-1.49-0.454-1.742-0.19c-1.858,1.936-4.067,3.391-4.059,6.813c0.047,17.783,0.066,35.566,0.078,53.35
			C34.082,362.222,42.055,362.121,50.031,362.047z"/>
		<path style="fill-rule:evenodd;clip-rule:evenodd;fill:#96BFD8;" d="M40.803,399.713c2.258-9.216,4.514-18.425,6.771-27.644
			c-7.154,0.069-14.307,0.129-21.454-0.079c0.004,8.988,0,17.976,0.001,26.964C31.018,399.143,35.911,399.406,40.803,399.713z"/>
		<path style="fill-rule:evenodd;clip-rule:evenodd;fill:#80AFCF;" d="M26.122,404.955c0,16.85,0.001,33.7,0.001,50.551v2.392
			c0.131,0.048,0.261,0.097,0.392,0.146c4.279-17.467,8.561-34.946,12.842-52.421C34.946,405.351,30.535,405.125,26.122,404.955z"/>
		<path style="fill-rule:evenodd;clip-rule:evenodd;fill:#96BFD8;" d="M617.941,71.283c0.811-0.543,1.629-1.092,2.457-1.648
			c0.195-14.449,0.697-28.912,0.008-43.34h-13.754c-0.379,0.75-0.754,1.451-1.09,2.168c-2.338,4.994-4.666,9.991-6.998,14.986
			c-0.805,1.724-1.609,3.446-2.414,5.17C603.789,55.801,610.682,63.721,617.941,71.283z"/>
		<path style="fill-rule:evenodd;clip-rule:evenodd;fill:#BEAF8F;" d="M593.469,54.361c-2.799,5.992-5.596,11.984-8.397,17.974
			c-0.512,1.095-0.967,2.059-0.219,3.354c2.281,3.942,4.402,7.976,6.596,11.969c0.137,0.249,0.363,0.448,0.527,0.646
			c2.391-1.374,10.467-6.67,20.898-13.633C606.412,67.892,600.205,60.865,593.469,54.361z"/>
		<path style="fill-rule:evenodd;clip-rule:evenodd;fill:#6DAF8C;" d="M683.457,26.295h-24.463
			c0.439,5.57,0.594,11.153,0.644,16.743C672.924,33.938,682.965,26.932,683.457,26.295z"/>
		<path style="fill-rule:evenodd;clip-rule:evenodd;fill:#80AFCF;" d="M653.662,47.124c-0.016-6.957-0.123-13.902-0.668-20.829
			h-22.588c0.58,12.165,0.318,24.353,0.102,36.538C638.264,57.6,646.281,52.16,653.662,47.124z"/>
		<path style="fill-rule:evenodd;clip-rule:evenodd;fill:#80AFCF;" d="M495.768,440.774c-5.957-2.947-11.912-5.896-17.869-8.842
			c-5.004-2.475-10.016-4.931-15.318-7.54c-5.867,16.617-11.625,32.922-17.42,49.332h44.781
			C492.512,462.866,494.309,451.841,495.768,440.774z"/>
		<path style="fill-rule:evenodd;clip-rule:evenodd;fill:#6DAF8C;" d="M534.787,460.082c-10.502-5.198-21.008-10.395-31.512-15.592
			c-1.334,9.81-2.932,19.585-5.119,29.234h38.455c0.063-0.916,0.137-1.695,0.166-2.477c0.096-2.395,0.143-4.793,0.269-7.186
			C537.193,461.294,537.227,461.288,534.787,460.082z"/>
		<path style="fill-rule:evenodd;clip-rule:evenodd;fill:#6DAF8C;" d="M55.581,235.866c17.193-17.915,35.714-37.435,36.173-38.326
			c-0.662-0.425-1.324-0.866-2.001-1.283c-4.765-2.935-9.563-5.817-14.28-8.826c-1.465-0.935-2.816-1.129-4.505-0.757
			c-5.998,1.323-12.009,2.591-18.02,3.857C54.708,205.587,55.078,220.726,55.581,235.866z"/>
		<path style="fill-rule:evenodd;clip-rule:evenodd;fill:#BEAF8F;" d="M48.533,218.107c0.166-0.051,0.323-0.073,0.48-0.097
			c-0.354-8.77-0.876-17.527-1.896-26.247c-0.719,0.152-1.438,0.303-2.157,0.456c-6.163,1.31-12.322,2.637-18.757,4.014
			c0,9.103,0,18.159,0,27.198C33.72,221.975,41.201,220.36,48.533,218.107z"/>
		<path style="fill-rule:evenodd;clip-rule:evenodd;fill:#80AFCF;" d="M26.203,229.524c0.001,11.475,0.001,22.917,0.003,34.36
			c0,0.477,0.039,0.956,0.073,1.433c0.004,0.059,0.076,0.126,0.134,0.164c0.062,0.041,0.144,0.054,0.217,0.078
			c1.306-1.083,11.35-11.398,23.176-23.684c-0.211-5.907-0.367-11.819-0.564-17.727C41.671,226.419,33.955,228.046,26.203,229.524z"
			/>
		<path style="fill-rule:evenodd;clip-rule:evenodd;fill:#80AFCF;" d="M214.083,197.513c5.196,15.125,10.465,30.234,15.821,45.483
			c0.5-0.627,0.774-0.905,0.973-1.23c8.643-14.175,17.279-28.354,25.919-42.53C242.55,198.919,228.327,197.919,214.083,197.513z"/>
		<path style="fill-rule:evenodd;clip-rule:evenodd;fill:#6A97C9;" d="M274.766,169.467c-0.025-0.067-0.075-0.126-0.107-0.175
			h-70.164c2.479,7.408,4.986,14.787,7.506,22.157c16.148,0.389,32.269,1.62,48.421,1.835c4.793-7.865,9.588-15.728,14.379-23.594
			C274.832,169.641,274.792,169.539,274.766,169.467z"/>
		<path style="fill-rule:evenodd;clip-rule:evenodd;fill:#80AFCF;" d="M723.516,309.5v-29.81c-5.709-2.016-11.33-4-16.9-5.966
			c-0.994,1.48-7.731,16.4-15.094,33.091C702.166,307.948,712.83,308.936,723.516,309.5z"/>
		<path style="fill-rule:evenodd;clip-rule:evenodd;fill:#6DAF8C;" d="M689,312.544c-8.945,20.372-17.957,41.393-18.143,42.781
			c17.576-3.875,35.086-7.734,52.658-11.608V315.5C711.986,314.891,700.48,313.787,689,312.544z"/>
		<path style="fill-rule:evenodd;clip-rule:evenodd;fill:#A9CBDF;" d="M697.691,50.387c-10.814,7.338-21.631,14.675-32.445,22.016
			c-0.047,0.032-0.055,0.141-0.059,0.216c-0.006,0.074,0.014,0.149,0.041,0.367c10.6,6.74,21.223,13.51,31.926,20.32
			C697.475,78.996,698.154,64.686,697.691,50.387z"/>
		<path style="fill-rule:evenodd;clip-rule:evenodd;fill:#96BFD8;" d="M707.631,75.212c-0.201,8.126-0.486,16.253-0.592,24.381
			c5.59,3.553,11.203,7.116,16.861,10.699c0.031-11.5,0.059-22.884,0.061-34.258C718.51,75.947,713.065,75.722,707.631,75.212z"/>
		<path style="fill-rule:evenodd;clip-rule:evenodd;fill:#6A97C9;" d="M707.754,69.269c5.385,0.54,10.791,0.763,16.205,0.834
			c-0.012-12.392-0.066-24.787-0.207-37.317c-1.389,0.902-2.191,1.404-2.973,1.935c-4.465,3.028-8.928,6.059-13.393,9.087
			C707.891,52.292,707.902,60.78,707.754,69.269z"/>
		<path style="fill-rule:evenodd;clip-rule:evenodd;fill:#6DAF8C;" d="M662.381,446.073c-0.426-3.15-0.853-6.3-1.279-9.454
			c-13.262-4.942-26.394-9.838-39.846-14.852c-2.053,7.515-4.082,14.936-6.103,22.33
			C630.906,444.513,646.617,446.139,662.381,446.073z"/>
		<path style="fill-rule:evenodd;clip-rule:evenodd;fill:#80AFCF;" d="M635.914,451.1c-7.461-0.436-14.92-0.889-22.391-1.044
			c-2.146,7.857-4.289,15.691-6.438,23.558h29.322C636.498,466.101,636.543,458.595,635.914,451.1z"/>
		<path style="fill-rule:evenodd;clip-rule:evenodd;fill:#BEAF8F;" d="M642.408,473.614h23.699
			c-0.979-7.23-1.947-14.393-2.914-21.543c-7.092,0.057-14.172-0.246-21.25-0.631C642.543,458.822,642.496,466.214,642.408,473.614z
			"/>
		<path style="fill-rule:evenodd;clip-rule:evenodd;fill:#80AFCF;" d="M601.324,433.825c1.566-5.919,3.117-11.846,4.639-17.796
			c-13.178-4.924-26.096-9.75-39.324-14.692c-0.303,7.838-0.598,15.637-0.889,23.423
			C577.734,427.217,589.357,431.253,601.324,433.825z"/>
		<path style="fill-rule:evenodd;clip-rule:evenodd;fill:#96BFD8;" d="M565.525,430.825c-0.525,14.305-1.031,28.562-1.5,42.838
			h26.371c3.221-11.328,6.34-22.667,9.383-34.043C588.252,437.147,577.045,433.305,565.525,430.825z"/>
		<path style="fill-rule:evenodd;clip-rule:evenodd;fill:#A9CBDF;" d="M26.208,92.197v33.044c1.151,0.692,2.296,1.381,3.45,2.074
			c0.252-0.33,0.459-0.496,0.527-0.707c3.554-10.892,7.102-21.785,10.652-32.678C35.934,93.651,31.071,92.953,26.208,92.197z"/>
		<path style="fill-rule:evenodd;clip-rule:evenodd;fill:#BEAF8F;" d="M42.766,88.016C46.51,76.53,50.256,65.044,54,53.557
			c-9.267-0.2-18.527-0.634-27.791-0.93v33.569C31.708,87.05,37.211,87.834,42.766,88.016z"/>
		<path style="fill-rule:evenodd;clip-rule:evenodd;fill:#80AFCF;" d="M56.591,45.607c1.914-5.875,3.831-11.749,5.745-17.624
			c0.122-0.374,0.155-0.778,0.216-1.171c0.01-0.067-0.049-0.147-0.084-0.217c-0.034-0.07-0.079-0.134-0.163-0.275H26.208v18.307
			C36.336,44.951,46.459,45.442,56.591,45.607z"/>
		<path style="fill-rule:evenodd;clip-rule:evenodd;fill:#80AFCF;" d="M540.145,185.869c13.168,4.661,26.33,9.319,39.662,14.038
			c-1.303-7.346-2.516-14.248-3.754-21.146c-1.238-6.915-2.473-13.83-3.76-20.736c-1.273-6.838-2.318-13.723-3.855-20.822
			c-10.098,6.791-20.096,13.515-30.1,20.243C539.342,166.891,539.889,176.374,540.145,185.869z"/>
		<path style="fill-rule:evenodd;clip-rule:evenodd;fill:#96BFD8;" d="M532.705,161.233c-7.119,4.788-14.246,9.582-21.434,14.416
			c7.639,2.704,15.227,5.39,22.809,8.073C533.84,176.213,533.406,168.713,532.705,161.233z"/>
		<path style="fill-rule:evenodd;clip-rule:evenodd;fill:#BEAF8F;" d="M74.866,445.247c-8.18-0.307-16.372-0.614-24.599-0.923
			c-2.401,9.805-4.784,19.53-7.203,29.406c0.895,0.059,1.522,0.137,2.149,0.138c10.45,0.004,20.9,0.004,31.351,0.009
			C76.219,464.328,75.28,454.739,74.866,445.247z"/>
		<path style="fill-rule:evenodd;clip-rule:evenodd;fill:#6A97C9;" d="M123.941,447.089c-13.676-0.513-27.356-1.026-41.076-1.542
			c0.392,9.421,1.25,18.895,1.583,28.339c4.347,0.004,8.694,0.004,13.041,0.015c1.421,0.004,2.344-0.513,3.279-1.519
			c6.154-6.609,12.367-13.166,18.561-19.739c1.584-1.682,3.168-3.362,4.752-5.044C124.034,447.429,123.988,447.259,123.941,447.089z
			"/>
		<path style="fill-rule:evenodd;clip-rule:evenodd;fill:#80AFCF;" d="M158.68,450.782c-7.17,7.6-14.348,15.209-21.604,22.9h33.367
			C166.521,466.049,162.619,458.407,158.68,450.782z"/>
		<path style="fill-rule:evenodd;clip-rule:evenodd;fill:#BEAF8F;" d="M177.186,473.682h24.076
			c-8.265-14.126-16.354-27.95-24.57-41.993c-4.567,4.842-9.112,9.659-13.654,14.474
			C167.779,455.323,172.46,464.514,177.186,473.682z"/>
		<path style="fill-rule:evenodd;clip-rule:evenodd;fill:#6A97C9;" d="M176.333,26.291v11.751c2.538,0.138,5.075,0.281,7.613,0.416
			c7.426,0.395,14.854,0.733,22.279,1.129c4.258,0.227,8.517,0.458,12.775,0.69V26.308
			C204.777,26.301,190.555,26.296,176.333,26.291z"/>
		<path style="fill-rule:evenodd;clip-rule:evenodd;fill:#A9CBDF;" d="M170.333,26.289c-6.295-0.002-12.591-0.007-18.886-0.008
			c-0.472,0-0.943,0.109-1.413,0.179c-0.072,0.01-0.142,0.075-0.2,0.129c-0.054,0.05-0.092,0.118-0.153,0.199v9.694
			c0.826,0.091,1.379,0.178,1.934,0.209c6.239,0.344,12.48,0.682,18.719,1.023V26.289z"/>
		<path style="fill-rule:evenodd;clip-rule:evenodd;fill:#96BFD8;" d="M256.054,26.323c-10.352-0.007-20.703-0.007-31.055-0.013
			v14.295c5.237,0.29,10.475,0.584,15.712,0.895c1.351,0.08,2.226-0.372,3.117-1.315c3.73-3.955,7.53-7.846,11.295-11.769
			c0.523-0.545,0.996-1.14,1.509-1.731C256.311,26.478,256.183,26.323,256.054,26.323z"/>
		<path style="fill-rule:evenodd;clip-rule:evenodd;fill:#80AFCF;" d="M723.551,473.723c-11.695,0-23.248,0-35.029,0
			c-1.269-9.286-2.533-18.52-3.838-28.037c0.83,0.209,1.416,0.298,1.959,0.501c11.67,4.352,23.334,8.712,34.996,13.08
			c2.063,0.772,2.078,0.791,2.092,2.873c0.02,3.117,0.016,6.236-0.002,9.354C723.725,472.191,723.621,472.888,723.551,473.723z"/>
		<path style="fill-rule:evenodd;clip-rule:evenodd;fill:#80AFCF;" d="M384.675,50.201c0.779-7.852,1.559-15.704,2.33-23.472
			c1.945-0.544,30.827-0.684,34.3-0.159c-12.222,8.076-24.167,15.969-36.112,23.862C385.021,50.354,384.847,50.278,384.675,50.201z"
			/>
		<path style="fill-rule:evenodd;clip-rule:evenodd;fill:#80AFCF;" d="M558.135,26.232c8.897,0,17.559,0,26.602,0
			c-4.096,8.791-8.09,17.366-12.106,25.986C571.271,50.914,560.328,31.279,558.135,26.232z"/>
		<path style="fill-rule:evenodd;clip-rule:evenodd;fill:#6A97C9;" d="M53.29,174.087c-9.265,1.962-17.972,3.806-26.892,5.694
			c0-7.485,0-14.644,0-21.837c0.017-0.011,0.076-0.063,0.144-0.096c0.066-0.033,0.169-0.088,0.212-0.062
			c8.258,5.004,16.514,10.013,24.764,15.029C51.978,173.096,52.397,173.443,53.29,174.087z"/>
	</g>
	<g>
		<defs>
			<rect id="SVGID_1_" x="20" y="20" width="710" height="460"/>
		</defs>
		<clipPath id="SVGID_00000102526022536743364200000004809414807623077511_">
			<use xlink:href="#SVGID_1_"  style="overflow:visible;"/>
		</clipPath>
		<g style="clip-path:url(#SVGID_00000102526022536743364200000004809414807623077511_);">
			<g>
				<g>
					<g>
						<path style="fill:#FFFFFF;" d="M306.697-16.303c-20.885,21.7-41.77,43.4-62.654,65.1
							c-43.701,45.407-87.401,90.813-131.102,136.219C74.856,224.589,36.771,264.162-1.314,303.733
							c-8.33,8.655-16.659,17.31-24.988,25.964c-6.706,6.968,3.888,17.588,10.606,10.607c20.885-21.7,41.77-43.4,62.654-65.101
							c43.701-45.407,87.401-90.813,131.102-136.219c38.085-39.572,76.17-79.145,114.256-118.717
							c8.33-8.655,16.659-17.309,24.988-25.964C324.01-12.663,313.416-23.283,306.697-16.303L306.697-16.303z"/>
					</g>
				</g>
				<g>
					<g>
						<path style="fill:#FFFFFF;" d="M218.007,94.232c23.13,8.185,46.261,16.37,69.392,24.554
							c53.927,19.082,107.853,38.164,161.779,57.245c61.524,21.77,123.048,43.54,184.571,65.31
							c45.924,16.25,91.847,32.5,137.769,48.749c10.496,3.715,20.992,7.429,31.487,11.143c9.144,3.234,13.041-11.261,3.988-14.465
							c-23.131-8.185-46.262-16.369-69.393-24.554c-53.926-19.082-107.852-38.164-161.779-57.245
							c-61.523-21.77-123.048-43.54-184.571-65.31c-45.923-16.249-91.846-32.499-137.769-48.749
							c-10.496-3.714-20.992-7.428-31.488-11.142C212.852,76.533,208.954,91.029,218.007,94.232L218.007,94.232z"/>
					</g>
				</g>
				<g>
					<g>
						<path style="fill:#FFFFFF;" d="M169.769,133.994c10.431,30.214,20.862,60.427,31.292,90.641
							c20.868,60.446,41.736,120.892,62.605,181.338c15.669,45.386,31.338,90.772,47.007,136.159
							c1.365,3.954,2.73,7.908,4.095,11.862c3.137,9.085,17.629,5.181,14.464-3.988c-10.431-30.213-20.862-60.427-31.292-90.641
							c-20.868-60.445-41.736-120.892-62.605-181.338c-15.669-45.386-31.338-90.772-47.007-136.159
							c-1.365-3.954-2.73-7.908-4.095-11.862C181.096,120.921,166.603,124.826,169.769,133.994L169.769,133.994z"/>
					</g>
				</g>
				<g>
					<g>
						<path style="fill:#FFFFFF;" d="M484.963,185.893c33.602-22.599,67.202-45.197,100.803-67.795
							c47.888-32.208,95.776-64.415,143.664-96.622c5.452-3.667,10.903-7.334,16.355-11c7.98-5.367,0.482-18.368-7.57-12.952
							c-33.602,22.599-67.202,45.197-100.803,67.795c-47.888,32.208-95.776,64.415-143.664,96.622
							c-5.452,3.667-10.903,7.333-16.355,11C469.413,178.308,476.911,191.309,484.963,185.893L484.963,185.893z"/>
					</g>
				</g>
				<g>
					<g>
						<path style="fill:#FFFFFF;" d="M552.5,209.001c-1.427,39.231-2.854,78.463-4.28,117.695
							c-2.182,60.001-4.363,120.002-6.545,180.004c-0.392,10.767-0.783,21.534-1.175,32.301c-0.352,9.678,14.649,9.644,15,0
							c1.427-39.231,2.854-78.463,4.28-117.695c2.182-60.001,4.363-120.002,6.545-180.004c0.392-10.767,0.783-21.534,1.175-32.301
							C567.852,199.323,552.851,199.357,552.5,209.001L552.5,209.001z"/>
					</g>
				</g>
				<g>
					<g>
						<path style="fill:#FFFFFF;" d="M242.332,331.294c-32.05,33.963-64.1,67.926-96.149,101.889
							c-22.495,23.838-44.99,47.676-67.485,71.514c-6.632,7.028,3.956,17.655,10.606,10.607
							c32.05-33.963,64.1-67.926,96.149-101.889c22.495-23.838,44.99-47.676,67.485-71.514
							C259.571,334.874,248.983,324.247,242.332,331.294L242.332,331.294z"/>
					</g>
				</g>
				<g>
					<g>
						<path style="fill:#FFFFFF;" d="M117.611,188.436c-40.477-24.814-80.955-49.629-121.432-74.444
							c-0.798-0.489-1.596-0.978-2.394-1.467c-8.271-5.07-15.8,7.907-7.57,12.952c40.477,24.814,80.955,49.629,121.432,74.444
							c0.798,0.489,1.596,0.978,2.394,1.467C118.311,206.458,125.841,193.481,117.611,188.436L117.611,188.436z"/>
					</g>
				</g>
				<g>
					<g>
						<path style="fill:#FFFFFF;" d="M291.786,452.476c72.562-34.641,144.673-70.239,216.796-105.781
							c17.035-8.396,34.067-16.797,51.09-25.219c8.671-4.289,1.068-17.226-7.57-12.951
							c-52.523,25.985-105.106,51.852-157.746,77.599c-36.651,17.927-73.32,35.823-110.141,53.401
							C275.489,443.69,283.104,456.622,291.786,452.476L291.786,452.476z"/>
					</g>
				</g>
				<g>
					<g>
						<path style="fill:#FFFFFF;" d="M593.476,104.215c-23.261-42.699-46.522-85.398-69.784-128.098
							c-1.071-1.967-2.144-3.935-3.216-5.902c-4.628-8.496-17.58-0.926-12.951,7.57c23.261,42.699,46.522,85.398,69.784,128.098
							c1.071,1.967,2.144,3.935,3.216,5.902C585.152,120.281,598.104,112.712,593.476,104.215L593.476,104.215z"/>
					</g>
				</g>
				<g>
					<g>
						<path style="fill:#FFFFFF;" d="M552.006,389.233c44.476,16.626,88.951,33.252,133.427,49.879
							c26.857,10.04,53.716,20.08,80.573,30.121c9.079,3.394,12.963-11.109,3.988-14.465
							c-44.476-16.626-88.951-33.252-133.427-49.879c-26.857-10.04-53.716-20.08-80.573-30.121
							C546.915,371.375,543.031,385.878,552.006,389.233L552.006,389.233z"/>
					</g>
				</g>
			</g>
			<g>
				<g>
					<g>
						<path style="fill:#FFFFFF;" d="M370,136.001c4.892-49.22,9.783-98.44,14.674-147.66c0.442-4.446,0.884-8.893,1.326-13.34
							c0.638-6.417-9.368-6.355-10,0c-4.892,49.22-9.783,98.44-14.675,147.66c-0.442,4.446-0.884,8.893-1.326,13.34
							C359.363,142.417,369.369,142.355,370,136.001L370,136.001z"/>
					</g>
				</g>
				<g>
					<g>
						<path style="fill:#FFFFFF;" d="M640.477,76.318c39.702,25.265,79.404,50.53,119.107,75.795
							c0.631,0.402,1.263,0.803,1.893,1.205c5.458,3.473,10.469-5.184,5.047-8.635c-39.702-25.265-79.404-50.53-119.107-75.795
							c-0.631-0.402-1.263-0.803-1.893-1.205C640.065,64.21,635.055,72.867,640.477,76.318L640.477,76.318z"/>
					</g>
				</g>
				<g>
					<g>
						<path style="fill:#FFFFFF;" d="M408.001,156.001c-0.616,47.234-1.232,94.469-1.849,141.703
							c-0.384,29.433-0.768,58.864-1.151,88.297c-0.084,6.451,9.916,6.443,10,0c0.616-47.234,1.232-94.469,1.849-141.703
							c0.384-29.433,0.767-58.865,1.151-88.297C418.085,149.549,408.085,149.557,408.001,156.001L408.001,156.001z"/>
					</g>
				</g>
				<g>
					<g>
						<path style="fill:#FFFFFF;" d="M696.683,255.477c-20.1,45.519-40.198,91.038-60.298,136.557
							c-2.567,5.815-5.135,11.629-7.702,17.443c-2.579,5.842,6.035,10.935,8.635,5.047c20.1-45.519,40.198-91.038,60.298-136.557
							c2.567-5.814,5.135-11.629,7.702-17.443C707.896,254.682,699.282,249.588,696.683,255.477L696.683,255.477z"/>
					</g>
				</g>
				<g>
					<g>
						<path style="fill:#FFFFFF;" d="M666.179,428.33c4.667,34.333,9.333,68.667,14,103c0.865,6.365,10.499,3.645,9.643-2.658
							c-4.667-34.333-9.333-68.667-14-103C674.956,419.306,665.322,422.027,666.179,428.33L666.179,428.33z"/>
					</g>
				</g>
				<g>
					<g>
						<path style="fill:#FFFFFF;" d="M471.179,351.671c-16.504,46.719-33.007,93.437-49.511,140.155
							c-5.163,14.615-10.325,29.23-15.488,43.845c-2.153,6.097,7.51,8.695,9.643,2.658c16.504-46.719,33.007-93.436,49.511-140.155
							c5.163-14.615,10.325-29.229,15.488-43.845C482.975,348.233,473.312,345.634,471.179,351.671L471.179,351.671z"/>
					</g>
				</g>
				<g>
					<g>
						<path style="fill:#FFFFFF;" d="M172.683,412.524c24.755,42.303,49.51,84.605,74.265,126.908
							c1.579,2.697,3.157,5.395,4.735,8.092c3.254,5.56,11.899,0.53,8.635-5.047c-24.755-42.303-49.51-84.605-74.265-126.908
							c-1.579-2.697-3.157-5.395-4.735-8.092C178.063,401.917,169.419,406.947,172.683,412.524L172.683,412.524z"/>
					</g>
				</g>
				<g>
					<g>
						<path style="fill:#FFFFFF;" d="M144.001,168.001c-0.243-49.084-0.486-98.168-0.729-147.252
							C143.181,2.5,143.091-15.75,143.001-34c-0.032-6.447-10.032-6.45-10,0c0.243,49.084,0.486,98.168,0.729,147.252
							c0.09,18.249,0.181,36.499,0.271,54.748C134.032,174.447,144.032,174.451,144.001,168.001L144.001,168.001z"/>
					</g>
				</g>
				<g>
					<g>
						<path style="fill:#FFFFFF;" d="M216.524,368.683c-44.416-20.318-88.833-40.636-133.249-60.954
							c-18.25-8.349-36.5-16.697-54.751-25.046c-5.819-2.662-10.905,5.955-5.047,8.635c44.416,20.318,88.833,40.636,133.249,60.954
							c18.25,8.349,36.5,16.697,54.751,25.046C217.296,379.98,222.382,371.363,216.524,368.683L216.524,368.683z"/>
					</g>
				</g>
				<g>
					<g>
						<path style="fill:#FFFFFF;" d="M313.683,118.477c-26.134,42.609-52.268,85.218-78.401,127.828
							c-4.533,7.391-9.066,14.782-13.599,22.172c-3.381,5.513,5.27,10.532,8.635,5.047c26.134-42.609,52.268-85.218,78.401-127.828
							c4.533-7.391,9.066-14.782,13.599-22.172C325.699,118.011,317.048,112.991,313.683,118.477L313.683,118.477z"/>
					</g>
				</g>
			</g>
			<g>
				<g>
					<g>
						<path style="fill:#FFFFFF;" d="M575.238,78.893c16.333-35,32.666-70,49-105c2.031-4.354-4.433-8.165-6.477-3.785
							c-16.333,35-32.666,70-49,105C566.73,79.462,573.194,83.273,575.238,78.893L575.238,78.893z"/>
					</g>
				</g>
				<g>
					<g>
						<path style="fill:#FFFFFF;" d="M571.384,117.998c6,33.333,12,66.666,18,100c0.857,4.755,8.083,2.734,7.232-1.994
							c-6-33.333-12-66.667-18-100C577.76,111.249,570.533,113.27,571.384,117.998L571.384,117.998z"/>
					</g>
				</g>
				<g>
					<g>
						<path style="fill:#FFFFFF;" d="M558.003,287.617c38.334,10.333,76.667,20.667,115,31c4.677,1.261,6.659-5.975,1.994-7.232
							c-38.334-10.333-76.667-20.667-115-31C555.32,279.124,553.338,286.359,558.003,287.617L558.003,287.617z"/>
					</g>
				</g>
				<g>
					<g>
						<path style="fill:#FFFFFF;" d="M248.003,241.617c47.254,15.556,94.508,31.111,141.762,46.667
							c6.413,2.11,12.825,4.222,19.238,6.333c4.607,1.517,6.565-5.728,1.994-7.232c-47.254-15.556-94.508-31.111-141.762-46.667
							c-6.413-2.111-12.826-4.222-19.238-6.334C245.39,232.868,243.432,240.111,248.003,241.617L248.003,241.617z"/>
					</g>
				</g>
				<g>
					<g>
						<path style="fill:#FFFFFF;" d="M37.617,147.998C53.028,100.681,68.44,53.364,83.852,6.047
							c3.588-11.017,7.177-22.033,10.765-33.05c1.502-4.612-5.741-6.572-7.232-1.994C71.973,18.32,56.561,65.637,41.15,112.954
							c-3.588,11.017-7.177,22.033-10.765,33.05C28.882,150.616,36.125,152.575,37.617,147.998L37.617,147.998z"/>
					</g>
				</g>
				<g>
					<g>
						<path style="fill:#FFFFFF;" d="M69.384,309.003c-11.67,47.633-23.34,95.266-35.01,142.898
							c-4.664,19.034-9.327,38.068-13.99,57.102c-1.151,4.697,6.082,6.691,7.232,1.994c11.67-47.633,23.34-95.266,35.01-142.897
							c4.664-19.034,9.327-38.068,13.99-57.103C77.768,306.3,70.535,304.307,69.384,309.003L69.384,309.003z"/>
					</g>
				</g>
				<g>
					<g>
						<path style="fill:#FFFFFF;" d="M456.107,414.239c31,15.333,62,30.666,93,46c4.319,2.137,8.121-4.332,3.785-6.477
							c-31-15.333-62-30.666-93-46C455.573,405.625,451.771,412.094,456.107,414.239L456.107,414.239z"/>
					</g>
				</g>
				<g>
					<g>
						<path style="fill:#FFFFFF;" d="M373.893,74.238c41.296-27.276,82.592-54.552,123.889-81.828
							c12.703-8.391,25.407-16.781,38.11-25.172c4.016-2.652,0.264-9.15-3.785-6.476c-41.296,27.276-82.593,54.552-123.889,81.828
							c-12.704,8.391-25.407,16.781-38.111,25.172C366.092,70.415,369.844,76.913,373.893,74.238L373.893,74.238z"/>
					</g>
				</g>
			</g>
			<g>
				<g>
					<g>
						<path style="fill:#FFFFFF;" d="M58.502,79.809c26,7.666,52,15.333,78,23c2.325,0.686,3.311-2.934,0.997-3.616
							c-26-7.666-52-15.333-78-23C57.174,75.507,56.188,79.126,58.502,79.809L58.502,79.809z"/>
					</g>
				</g>
				<g>
					<g>
						<path style="fill:#FFFFFF;" d="M205.381,210.054c-24.743,40.696-49.486,81.393-74.23,122.089c-0.59,0.97-1.18,1.94-1.77,2.911
							c-1.26,2.072,1.984,3.955,3.238,1.893c24.743-40.696,49.486-81.393,74.23-122.088c0.59-0.971,1.18-1.941,1.77-2.912
							C209.879,209.874,206.635,207.992,205.381,210.054L205.381,210.054z"/>
					</g>
				</g>
				<g>
					<g>
						<path style="fill:#FFFFFF;" d="M43,437.875c35.667,1.333,71.333,2.667,107,4c2.419,0.091,2.411-3.66,0-3.75
							c-35.667-1.333-71.333-2.667-107-4C40.581,434.035,40.59,437.786,43,437.875L43,437.875z"/>
					</g>
				</g>
				<g>
					<g>
						<path style="fill:#FFFFFF;" d="M411.001,256.875c47.533-2.93,95.066-5.86,142.599-8.79c1.134-0.07,2.267-0.14,3.4-0.21
							c2.402-0.148,2.416-3.899,0-3.75c-47.533,2.93-95.065,5.86-142.599,8.79c-1.134,0.07-2.267,0.14-3.4,0.21
							C408.599,253.274,408.585,257.025,411.001,256.875L411.001,256.875z"/>
					</g>
				</g>
				<g>
					<g>
						<path style="fill:#FFFFFF;" d="M615.192,406.503c-10.667,39-21.334,78-32,117c-0.64,2.336,2.979,3.326,3.615,0.996
							c10.667-39,21.334-78,32-117C619.447,405.163,615.829,404.172,615.192,406.503L615.192,406.503z"/>
					</g>
				</g>
				<g>
					<g>
						<path style="fill:#FFFFFF;" d="M655.498,368.808c39.334-8.666,78.667-17.333,118-26c2.361-0.52,1.36-4.135-0.996-3.615
							c-39.334,8.666-78.667,17.333-118,26C652.141,365.712,653.142,369.328,655.498,368.808L655.498,368.808z"/>
					</g>
				</g>
				<g>
					<g>
						<path style="fill:#FFFFFF;" d="M690.192,103.502c-17.882,42.717-35.764,85.434-53.644,128.15
							c-0.119,0.283-0.237,0.566-0.356,0.85c-0.934,2.23,2.696,3.193,3.615,0.997c17.882-42.717,35.764-85.433,53.645-128.15
							c0.119-0.283,0.237-0.566,0.355-0.85C694.741,102.269,691.111,101.306,690.192,103.502L690.192,103.502z"/>
					</g>
				</g>
				<g>
					<g>
						<path style="fill:#FFFFFF;" d="M540.381,27.054c-27.063,41.498-54.127,82.995-81.19,124.492
							c-2.936,4.503-5.873,9.005-8.81,13.508c-1.325,2.032,1.923,3.909,3.238,1.893c27.063-41.498,54.127-82.995,81.19-124.492
							c2.937-4.502,5.873-9.005,8.81-13.508C544.944,26.915,541.696,25.038,540.381,27.054L540.381,27.054z"/>
					</g>
				</g>
				<g>
					<g>
						<path style="fill:#FFFFFF;" d="M353.192,274.503c-13.017,47.83-26.034,95.661-39.052,143.492
							c-1.316,4.836-2.632,9.672-3.948,14.508c-0.636,2.337,2.982,3.327,3.616,0.996c13.017-47.83,26.034-95.661,39.052-143.492
							c1.316-4.836,2.632-9.672,3.948-14.508C357.444,273.162,353.827,272.171,353.192,274.503L353.192,274.503z"/>
					</g>
				</g>
				<g>
					<g>
						<path style="fill:#FFFFFF;" d="M370.381,407.947c16.333,34,32.666,68,48.999,102c1.047,2.18,4.28,0.276,3.238-1.893
							c-16.333-34-32.666-68-49-102C372.573,403.875,369.34,405.778,370.381,407.947L370.381,407.947z"/>
					</g>
				</g>
				<g>
					<g>
						<path style="fill:#FFFFFF;" d="M251,48.125c-37.666-2-75.333-4-113-6c-2.417-0.128-2.405,3.622,0,3.75
							c37.667,2,75.333,4,113,6C253.418,52.004,253.406,48.253,251,48.125L251,48.125z"/>
					</g>
				</g>
				<g>
					<g>
						<path style="fill:#FFFFFF;" d="M77.502,175.192c-26.667,5.667-53.333,11.333-80,17c-2.365,0.502-1.362,4.117,0.997,3.616
							c26.667-5.666,53.333-11.333,80-17C80.864,178.306,79.861,174.691,77.502,175.192L77.502,175.192z"/>
					</g>
				</g>
				<g>
					<g>
						<path style="fill:#FFFFFF;" d="M294,159.126c-34,0-68,0-102,0c-2.418,0-2.418,3.75,0,3.75c34,0,68,0,102,0
							C296.419,162.876,296.419,159.126,294,159.126L294,159.126z"/>
					</g>
				</g>
			</g>
		</g>
	</g>
	<g>
		<g>
			<g>
				<g>
					<path style="fill:#6DAF8C;" d="M308.646,39.686c4.836,0,4.836-7.5,0-7.5C303.81,32.186,303.81,39.686,308.646,39.686
						L308.646,39.686z"/>
				</g>
			</g>
			<g>
				<g>
					<path style="fill:#6DAF8C;" d="M308.646,51.686c4.836,0,4.836-7.5,0-7.5C303.81,44.186,303.81,51.686,308.646,51.686
						L308.646,51.686z"/>
				</g>
			</g>
			<g>
				<g>
					<path style="fill:#6DAF8C;" d="M308.646,63.686c4.836,0,4.836-7.5,0-7.5C303.81,56.186,303.81,63.686,308.646,63.686
						L308.646,63.686z"/>
				</g>
			</g>
		</g>
		<g>
			<g>
				<g>
					<path style="fill:#6DAF8C;" d="M623.484,256.461c4.837,0,4.837-7.5,0-7.5S618.647,256.461,623.484,256.461L623.484,256.461z"/>
				</g>
			</g>
			<g>
				<g>
					<path style="fill:#6DAF8C;" d="M612.484,253.46c4.837,0,4.837-7.5,0-7.5S607.647,253.46,612.484,253.46L612.484,253.46z"/>
				</g>
			</g>
		</g>
		<g>
			<g>
				<g>
					<path style="fill:#6DAF8C;" d="M338.323,401.622c4.836,0,4.836-7.5,0-7.5S333.486,401.622,338.323,401.622L338.323,401.622z"/>
				</g>
			</g>
			<g>
				<g>
					<path style="fill:#6DAF8C;" d="M351,396.75c4.837,0,4.837-7.5,0-7.5C346.164,389.25,346.164,396.75,351,396.75L351,396.75z"/>
				</g>
			</g>
			<g>
				<g>
					<path style="fill:#6DAF8C;" d="M364,391.25c4.837,0,4.837-7.5,0-7.5C359.164,383.75,359.164,391.25,364,391.25L364,391.25z"/>
				</g>
			</g>
		</g>
		<g>
			<g>
				<g>
					<path style="fill:#6DAF8C;" d="M105.775,305.493c4.836,0,4.836-7.5,0-7.5C100.938,297.993,100.938,305.493,105.775,305.493
						L105.775,305.493z"/>
				</g>
			</g>
			<g>
				<g>
					<path style="fill:#6DAF8C;" d="M117.251,311c4.836,0,4.836-7.5,0-7.5C112.414,303.5,112.414,311,117.251,311L117.251,311z"/>
				</g>
			</g>
			<g>
				<g>
					<path style="fill:#6DAF8C;" d="M128.001,317c4.837,0,4.837-7.5,0-7.5C123.164,309.5,123.164,317,128.001,317L128.001,317z"/>
				</g>
			</g>
		</g>
	</g>
	<g>
		<g>
			<g>
				<path style="fill:#CCE6F4;" d="M176.001,137.667c6.449,0,6.449-10,0-10C169.552,127.667,169.552,137.667,176.001,137.667
					L176.001,137.667z"/>
			</g>
		</g>
		<g>
			<g>
				<path style="fill:#CCE6F4;" d="M554.334,322.668c6.448,0,6.448-10,0-10C547.886,312.668,547.886,322.668,554.334,322.668
					L554.334,322.668z"/>
			</g>
		</g>
		<g>
			<g>
				<path style="fill:#CCE6F4;" d="M488,183.667c6.448,0,6.448-10,0-10C481.552,173.667,481.552,183.667,488,183.667L488,183.667z"
					/>
			</g>
		</g>
		<g>
			<g>
				<path style="fill:#CCE6F4;" d="M287,451.333c6.449,0,6.449-10,0-10C280.552,441.333,280.552,451.333,287,451.333L287,451.333z"
					/>
			</g>
		</g>
	</g>
	<g>
		<path style="fill:#C72E70;" d="M376.913,225.693c-6.231-5.718-14.469-25.019,0.02-25.039
			C391.708,200.638,382.905,219.597,376.913,225.693"/>
		<g>
			<path style="fill:#FFFFFF;" d="M376.687,212.329c4.855,0,4.855-7.284,0-7.284C371.831,205.045,371.831,212.329,376.687,212.329
				L376.687,212.329z"/>
		</g>
	</g>
	<g>
		<path style="fill:#C72E70;" d="M84.747,390.938c-6.23-5.717-14.469-25.018,0.02-25.038
			C99.543,365.883,90.739,384.842,84.747,390.938"/>
		<g>
			<path style="fill:#FFFFFF;" d="M84.52,377.575c4.855,0,4.855-7.283,0-7.283C79.665,370.292,79.665,377.575,84.52,377.575
				L84.52,377.575z"/>
		</g>
	</g>
	<g>
		<path style="fill:#C72E70;" d="M68.611,133.321c-6.23-5.718-14.469-25.019,0.02-25.039
			C83.407,108.266,74.603,127.225,68.611,133.321"/>
		<g>
			<path style="fill:#FFFFFF;" d="M68.384,119.957c4.855,0,4.855-7.284,0-7.284C63.529,112.674,63.529,119.957,68.384,119.957
				L68.384,119.957z"/>
		</g>
	</g>
	<g>
		<path style="fill:#C72E70;" d="M469.195,60.397c-6.23-5.718-14.469-25.019,0.02-25.039
			C483.99,35.342,475.188,54.301,469.195,60.397"/>
		<g>
			<path style="fill:#FFFFFF;" d="M468.969,47.034c4.855,0,4.855-7.284,0-7.284S464.113,47.034,468.969,47.034L468.969,47.034z"/>
		</g>
	</g>
	<g>
		<path style="fill:#C72E70;" d="M524.252,378.269c-6.231-5.718-14.469-25.019,0.019-25.038
			C539.047,353.213,530.244,372.172,524.252,378.269"/>
		<g>
			<path style="fill:#FFFFFF;" d="M524.025,364.905c4.855,0,4.855-7.283,0-7.283C519.17,357.622,519.17,364.905,524.025,364.905
				L524.025,364.905z"/>
		</g>
	</g>
	<g>
		<path style="fill:#C72E70;" d="M297.643,394.251c-6.23-5.718-14.469-25.019,0.02-25.038
			C312.439,369.196,303.635,388.155,297.643,394.251"/>
		<g>
			<path style="fill:#FFFFFF;" d="M297.417,380.887c4.855,0,4.855-7.283,0-7.283C292.561,373.604,292.561,380.887,297.417,380.887
				L297.417,380.887z"/>
		</g>
	</g>
	<g>
		<path style="fill:#C72E70;" d="M260.171,147.706c-6.23-5.717-14.469-25.018,0.02-25.038
			C274.966,122.651,266.163,141.61,260.171,147.706"/>
		<g>
			<path style="fill:#FFFFFF;" d="M259.944,134.342c4.855,0,4.855-7.283,0-7.283C255.088,127.059,255.088,134.342,259.944,134.342
				L259.944,134.342z"/>
		</g>
	</g>
	<g>
		<path style="fill:#C72E70;" d="M702.619,173.753c-6.231-5.718-14.469-25.019,0.019-25.039
			C717.414,148.698,708.611,167.657,702.619,173.753"/>
		<g>
			<path style="fill:#FFFFFF;" d="M702.393,160.389c4.856,0,4.856-7.284,0-7.284C697.537,153.105,697.537,160.389,702.393,160.389
				L702.393,160.389z"/>
		</g>
	</g>
</g>
<g id="DESIGNED_BY_FREEPIK">
	<g>
		<g id="XMLID_1_">
			<g id="XMLID_20_">
				<path id="XMLID_28_" style="fill:#252A30;" d="M385.104,465.465c-0.432,0.443-0.803,0.932-1.107,1.453l-0.465-0.24
					c-0.068-0.297-0.35-0.502-0.66-0.467c-0.33,0.039-0.566,0.34-0.529,0.67c0.039,0.332,0.34,0.568,0.67,0.529
					c0.066-0.008,0.127-0.025,0.184-0.053l0.451,0.234c-0.25,0.555-0.432,1.139-0.539,1.744l0.748,0.131
					c0.228-1.305,0.85-2.506,1.791-3.473L385.104,465.465z"/>
				<path id="XMLID_27_" style="fill:#252A30;" d="M390.593,463.165c-0.172,0-0.342,0.006-0.51,0.016l-0.074-0.625
					c0.188-0.15,0.297-0.389,0.266-0.645c-0.045-0.393-0.402-0.674-0.795-0.629c-0.392,0.047-0.674,0.402-0.627,0.797
					c0.029,0.254,0.189,0.461,0.404,0.563l0.072,0.625c-0.713,0.115-1.402,0.332-2.059,0.645l0.326,0.685
					c0.934-0.447,1.941-0.674,2.996-0.674c0.496,0,0.992,0.053,1.475,0.158l0.16-0.742
					C391.692,463.223,391.144,463.165,390.593,463.165z"/>
				<path id="XMLID_26_" style="fill:#252A30;" d="M397.194,465.711c0.332-0.041,0.566-0.342,0.525-0.672
					c-0.039-0.332-0.34-0.566-0.672-0.525c-0.309,0.037-0.535,0.303-0.529,0.607l-0.416,0.363c-0.418-0.43-0.891-0.813-1.408-1.139
					l-0.404,0.641c1.135,0.715,2.021,1.727,2.564,2.926l0.69-0.313c-0.25-0.555-0.566-1.072-0.941-1.545l0.402-0.352
					C397.065,465.715,397.13,465.719,397.194,465.711z"/>
				<path id="XMLID_25_" style="fill:#252A30;" d="M390.046,473.372c-0.387,0.023-0.775,0.035-1.158,0.035
					c-0.879,0-1.732-0.061-2.479-0.18c-0.391-0.061-0.846-0.154-1.27-0.291c1.047,1.861,3.068,3.125,5.389,3.125
					c2.855,0,5.262-1.916,5.949-4.504c-0.682,0.449-1.506,0.826-2.459,1.123C392.839,473.047,391.464,473.288,390.046,473.372z"/>
				<path id="XMLID_21_" style="fill:#252A30;" d="M390.593,464.68c-3.352,0-6.08,2.666-6.08,5.943c0,0.426,0.047,0.85,0.137,1.262
					c0.674,0.482,2.707,0.891,5.348,0.73c2.881-0.174,5.297-0.957,6.672-2.158c-0.004-0.195-0.02-0.391-0.045-0.582
					C396.245,466.915,393.651,464.68,390.593,464.68z M388.433,471.196c-1.02,0-1.85-0.83-1.85-1.85c0-1.021,0.83-1.852,1.85-1.852
					c1.02,0,1.85,0.83,1.85,1.852C390.282,470.366,389.452,471.196,388.433,471.196z M393.171,470.288
					c-0.75,0-1.361-0.611-1.361-1.361s0.611-1.359,1.361-1.359s1.359,0.609,1.359,1.359S393.921,470.288,393.171,470.288z"/>
			</g>
			<path id="XMLID_18_" style="fill:#252A30;" d="M406.597,466.547c-0.295-0.115-0.807-0.309-1.383-0.238
				c-0.551,0.07-0.844,0.342-0.844,1.008v0.865h2.229v1.717h-2.229v5.455h-1.932v-5.455h-1.34v-1.717h1.34v-0.889
				c0-1.68,0.895-2.781,2.568-2.781c0.643,0,1.156,0.121,1.59,0.307V466.547z"/>
			<path id="XMLID_16_" style="fill:#252A30;" d="M411.298,469.879c-0.176-0.029-0.357-0.047-0.525-0.047
				c-0.897,0-1.51,0.549-1.51,1.613v3.908h-1.932v-7.172h1.873v0.785c0.451-0.674,1.139-0.977,2.02-0.977
				c0.414,0,0.848,0.127,1.094,0.336L411.298,469.879z"/>
			<path id="XMLID_13_" style="fill:#252A30;" d="M418.965,471.758c0,0.221-0.016,0.488-0.037,0.65h-5.083
				c0.207,1.037,0.932,1.488,1.841,1.488c0.623,0,1.295-0.252,1.814-0.69l1.133,1.244c-0.815,0.748-1.852,1.088-3.059,1.088
				c-2.196,0-3.722-1.496-3.722-3.752c0-2.258,1.48-3.797,3.626-3.797C417.543,467.991,418.957,469.522,418.965,471.758z
				 M413.851,471.092h3.175c-0.178-0.918-0.732-1.438-1.56-1.438C414.554,469.655,414.022,470.204,413.851,471.092z"/>
			<path id="XMLID_10_" style="fill:#252A30;" d="M426.619,471.758c0,0.221-0.016,0.488-0.037,0.65h-5.086
				c0.207,1.037,0.934,1.488,1.844,1.488c0.621,0,1.295-0.252,1.813-0.69l1.133,1.244c-0.814,0.748-1.85,1.088-3.057,1.088
				c-2.199,0-3.723-1.496-3.723-3.752c0-2.258,1.48-3.797,3.627-3.797C425.197,467.991,426.611,469.522,426.619,471.758z
				 M421.504,471.092h3.176c-0.178-0.918-0.734-1.438-1.563-1.438C422.207,469.655,421.674,470.204,421.504,471.092z"/>
			<path id="XMLID_7_" style="fill:#252A30;" d="M434.963,471.764c0,2.154-1.494,3.775-3.471,3.775
				c-0.961,0-1.642-0.377-2.109-0.932v3.707h-1.924v-10.133h1.887v0.793c0.467-0.586,1.154-0.984,2.139-0.984
				C433.469,467.991,434.963,469.612,434.963,471.764z M429.287,471.764c0,1.133,0.748,1.977,1.842,1.977
				c1.141,0,1.852-0.881,1.852-1.977c0-1.094-0.711-1.975-1.852-1.975C430.035,469.79,429.287,470.633,429.287,471.764z"/>
			<path id="XMLID_4_" style="fill:#252A30;" d="M438.066,465.836c0,0.695-0.539,1.229-1.234,1.229
				c-0.697,0-1.229-0.533-1.229-1.229c0-0.695,0.531-1.244,1.229-1.244C437.527,464.592,438.066,465.141,438.066,465.836z
				 M437.809,475.354h-1.932v-7.172h1.932V475.354z"/>
			<path id="XMLID_2_" style="fill:#252A30;" d="M441.031,470.737l2.703-2.555h2.367l-3.479,3.375l3.502,3.797h-2.377l-2.717-2.9
				v2.9H439.1v-10.658h1.932V470.737z"/>
		</g>
		<g>
			<path style="fill:#252A30;" d="M309.413,475.29v-1.055c-0.527,0.719-1.391,1.23-2.387,1.23c-1.846,0-3.15-1.406-3.15-3.705
				c0-2.256,1.289-3.721,3.15-3.721c0.951,0,1.816,0.469,2.387,1.244v-3.764h1.1v9.77H309.413z M309.413,473.372v-3.209
				c-0.395-0.615-1.244-1.143-2.124-1.143c-1.421,0-2.271,1.172-2.271,2.74c0,1.566,0.85,2.725,2.271,2.725
				C308.168,474.485,309.018,473.987,309.413,473.372z"/>
			<path style="fill:#252A30;" d="M311.932,471.745c0-2.051,1.465-3.705,3.486-3.705c2.139,0,3.398,1.67,3.398,3.793v0.279h-5.728
				c0.088,1.332,1.025,2.445,2.549,2.445c0.806,0,1.626-0.322,2.183-0.893l0.527,0.717c-0.703,0.703-1.655,1.084-2.813,1.084
				C313.441,475.465,311.932,473.957,311.932,471.745z M315.404,468.948c-1.509,0-2.256,1.273-2.315,2.357h4.644
				C317.718,470.25,317.015,468.948,315.404,468.948z"/>
			<path style="fill:#252A30;" d="M319.608,474.352l0.57-0.791c0.469,0.543,1.363,1.012,2.329,1.012
				c1.085,0,1.671-0.514,1.671-1.217c0-1.713-4.381-0.658-4.381-3.281c0-1.098,0.952-2.035,2.637-2.035
				c1.201,0,2.051,0.453,2.623,1.025l-0.514,0.762c-0.424-0.514-1.201-0.895-2.109-0.895c-0.967,0-1.566,0.484-1.566,1.113
				c0,1.553,4.379,0.527,4.379,3.281c0,1.188-0.951,2.139-2.783,2.139C321.307,475.465,320.325,475.114,319.608,474.352z"/>
			<path style="fill:#252A30;" d="M326.477,466.471c0-0.41,0.338-0.746,0.732-0.746c0.41,0,0.747,0.336,0.747,0.746
				c0,0.41-0.337,0.732-0.747,0.732C326.815,467.204,326.477,466.881,326.477,466.471z M326.667,475.29v-7.074h1.099v7.074H326.667z
				"/>
			<path style="fill:#252A30;" d="M329.583,477.106l0.557-0.82c0.586,0.703,1.289,0.967,2.299,0.967c1.172,0,2.272-0.57,2.272-2.123
				v-1.012c-0.514,0.719-1.377,1.26-2.373,1.26c-1.846,0-3.15-1.377-3.15-3.662c0-2.27,1.289-3.676,3.15-3.676
				c0.951,0,1.801,0.469,2.373,1.244v-1.068h1.098v6.869c0,2.344-1.641,3.076-3.369,3.076
				C331.237,478.161,330.417,477.926,329.583,477.106z M334.71,473.254v-3.092c-0.381-0.615-1.23-1.143-2.109-1.143
				c-1.422,0-2.271,1.129-2.271,2.695c0,1.553,0.849,2.695,2.271,2.695C333.479,474.411,334.329,473.87,334.71,473.254z"/>
			<path style="fill:#252A30;" d="M342.414,475.29v-4.629c0-1.244-0.63-1.641-1.582-1.641c-0.864,0-1.685,0.527-2.095,1.1v5.17
				h-1.099v-7.074h1.099v1.025c0.498-0.586,1.465-1.201,2.52-1.201c1.479,0,2.256,0.746,2.256,2.285v4.965H342.414z"/>
			<path style="fill:#252A30;" d="M344.932,471.745c0-2.051,1.465-3.705,3.486-3.705c2.139,0,3.398,1.67,3.398,3.793v0.279h-5.727
				c0.088,1.332,1.025,2.445,2.549,2.445c0.805,0,1.625-0.322,2.182-0.893l0.527,0.717c-0.703,0.703-1.654,1.084-2.813,1.084
				C346.442,475.465,344.932,473.957,344.932,471.745z M348.405,468.948c-1.51,0-2.256,1.273-2.314,2.357h4.643
				C350.719,470.25,350.016,468.948,348.405,468.948z"/>
			<path style="fill:#252A30;" d="M358.35,475.29v-1.055c-0.527,0.719-1.391,1.23-2.388,1.23c-1.845,0-3.15-1.406-3.15-3.705
				c0-2.256,1.289-3.721,3.15-3.721c0.952,0,1.817,0.469,2.388,1.244v-3.764h1.099v9.77H358.35z M358.35,473.372v-3.209
				c-0.396-0.615-1.244-1.143-2.123-1.143c-1.422,0-2.271,1.172-2.271,2.74c0,1.566,0.85,2.725,2.271,2.725
				C357.106,474.485,357.955,473.987,358.35,473.372z"/>
			<path style="fill:#252A30;" d="M364.692,475.29v-9.77h1.1v3.764c0.57-0.775,1.42-1.244,2.387-1.244
				c1.846,0,3.15,1.465,3.15,3.721c0,2.299-1.305,3.705-3.15,3.705c-0.996,0-1.859-0.512-2.387-1.23v1.055H364.692z
				 M367.901,474.485c1.436,0,2.285-1.158,2.285-2.725c0-1.568-0.85-2.74-2.285-2.74c-0.865,0-1.728,0.527-2.109,1.143v3.209
				C366.172,473.987,367.036,474.485,367.901,474.485z"/>
			<path style="fill:#252A30;" d="M372.529,477.063c0.161,0.072,0.425,0.117,0.6,0.117c0.483,0,0.806-0.162,1.055-0.748l0.469-1.068
				l-2.959-7.148h1.187l2.358,5.801l2.344-5.801h1.201l-3.545,8.51c-0.425,1.025-1.143,1.422-2.08,1.436
				c-0.234,0-0.6-0.043-0.806-0.104L372.529,477.063z"/>
		</g>
	</g>
</g>
</svg>
